<svg width="888" height="330" viewBox="0 0 888 330" fill="none" xmlns="http://www.w3.org/2000/svg">
<path d="M25 25H753C813.751 25 863 74.2487 863 135V305H135C74.2487 305 25 255.751 25 195V25Z" stroke="#F97316" stroke-width="50"/>
<path d="M459 50H753C799.944 50 838 88.0558 838 135V280H459V50Z" fill="#F97316"/>
<path fill-rule="evenodd" clip-rule="evenodd" d="M838.707 280.707C838.526 280.888 838.276 281 838 281H835.039V279H837V276.979H839V280C839 280.276 838.888 280.526 838.707 280.707ZM839 270.937H837V264.896H839V270.937ZM839 258.854H837V252.812H839V258.854ZM839 246.771H837V240.729H839V246.771ZM839 234.687H837V228.646H839V234.687ZM839 222.604H837V216.562H839V222.604ZM839 210.521H837V204.479H839V210.521ZM839 198.438H837V192.396H839V198.438ZM839 186.354H837V180.312H839V186.354ZM839 174.271H837V168.229H839V174.271ZM839 162.188H837V156.146H839V162.188ZM839 150.104H837V144.062H839V150.104ZM839 138.021H837V135C837 133.994 836.982 132.993 836.947 131.996L838.946 131.925C838.982 132.946 839 133.971 839 135V138.021ZM829.117 279H823.195V281H829.117V279ZM817.273 281V279H811.352V281H817.273ZM805.43 281V279H799.508V281H805.43ZM793.586 281V279H787.664V281H793.586ZM781.742 281V279H775.82V281H781.742ZM769.898 281V279H763.977V281H769.898ZM758.055 281V279H752.133V281H758.055ZM746.211 281V279H740.289V281H746.211ZM734.367 281V279H728.445V281H734.367ZM722.523 281V279H716.602V281H722.523ZM710.68 281V279H704.758V281H710.68ZM698.836 281V279H692.914V281H698.836ZM686.992 281V279H681.07V281H686.992ZM675.148 281V279H669.227V281H675.148ZM663.305 281V279H657.383V281H663.305ZM651.461 281V279H645.539V281H651.461ZM639.617 281V279H633.695V281H639.617ZM627.773 281V279H621.852V281H627.773ZM615.93 281V279H610.008V281H615.93ZM604.086 281V279H598.164V281H604.086ZM592.242 281V279H586.32V281H592.242ZM580.398 281V279H574.477V281H580.398ZM568.555 281V279H562.633V281H568.555ZM556.711 281V279H550.789V281H556.711ZM544.867 281V279H538.945V281H544.867ZM533.023 281V279H527.102V281H533.023ZM521.18 281V279H515.258V281H521.18ZM509.336 281V279H503.414V281H509.336ZM497.492 281V279H491.57V281H497.492ZM485.648 281V279H479.727V281H485.648ZM473.805 281V279H467.883V281H473.805ZM461.961 281V279H459V280V281H461.961ZM756.004 51.0527C755.007 51.0177 754.006 51 753 51H750.06V49H753C754.029 49 755.054 49.0181 756.075 49.0539L756.004 51.0527ZM744.18 49H738.3V51H744.18V49ZM732.42 51V49H726.54V51H732.42ZM720.66 51V49H714.78V51H720.66ZM708.9 51V49H703.02V51H708.9ZM697.14 51V49H691.26V51H697.14ZM685.38 51V49H679.5V51H685.38ZM673.62 51V49H667.74V51H673.62ZM661.86 51V49H655.98V51H661.86ZM650.1 51V49H644.22V51H650.1ZM638.34 51V49H632.46V51H638.34ZM626.58 51V49H620.7V51H626.58ZM614.82 51V49H608.94V51H614.82ZM603.06 51V49H597.18V51H603.06ZM591.3 51V49H585.42V51H591.3ZM579.54 51V49H573.66V51H579.54ZM567.78 51V49H561.9V51H567.78ZM556.02 51V49H550.14V51H556.02ZM544.26 51V49H538.38V51H544.26ZM532.5 51V49H526.62V51H532.5ZM520.74 51V49H514.86V51H520.74ZM508.98 51V49H503.1V51H508.98ZM497.22 51V49H491.34V51H497.22ZM485.46 51V49H479.58V51H485.46ZM473.7 51V49H467.82V51H473.7ZM461.94 51V49H459V50V51H461.94ZM767.923 52.3215C765.966 51.9706 763.986 51.6875 761.984 51.4747L762.195 49.4859C764.245 49.7037 766.272 49.9936 768.276 50.3529L767.923 52.3215ZM779.537 55.2776C777.647 54.6489 775.728 54.0855 773.781 53.59L774.274 51.6518C776.268 52.1591 778.233 52.7361 780.168 53.3799L779.537 55.2776ZM790.608 59.8682C788.825 58.9741 787.006 58.1417 785.154 57.3736L785.92 55.5261C787.817 56.3126 789.679 57.165 791.504 58.0804L790.608 59.8682ZM800.91 65.9934C799.271 64.8533 797.589 63.77 795.868 62.7465L796.89 61.0275C798.652 62.0753 800.374 63.1843 802.052 64.3516L800.91 65.9934ZM810.239 73.5202C808.776 72.158 807.265 70.8472 805.708 69.591L806.964 68.0345C808.558 69.3205 810.105 70.6622 811.602 72.0568L810.239 73.5202ZM818.409 82.2918C817.153 80.7348 815.842 79.2236 814.48 77.761L815.943 76.3979C817.338 77.8951 818.68 79.4421 819.966 81.0359L818.409 82.2918ZM825.253 92.1321C824.23 90.4108 823.147 88.7292 822.007 87.0901L823.648 85.948C824.816 87.626 825.925 89.3477 826.973 91.11L825.253 92.1321ZM830.626 102.846C829.858 100.994 829.026 99.1751 828.132 97.3925L829.92 96.4958C830.835 98.321 831.687 100.183 832.474 102.08L830.626 102.846ZM834.41 114.219C833.915 112.272 833.351 110.353 832.722 108.463L834.62 107.832C835.264 109.767 835.841 111.732 836.348 113.726L834.41 114.219ZM836.525 126.016C836.312 124.014 836.029 122.034 835.679 120.077L837.647 119.724C838.006 121.728 838.296 123.755 838.514 125.805L836.525 126.016Z" fill="black"/>
<mask id="path-4-inside-1_152_2" fill="white">
<path d="M50 50H459V280H135C88.0558 280 50 241.944 50 195V50Z"/>
</mask>
<path d="M50 50H459V280H135C88.0558 280 50 241.944 50 195V50Z" fill="#0F1019"/>
<path d="M49 49H459V51H51L49 49ZM459 281H135C87.5035 281 49 242.496 49 195H51C51 241.392 88.6081 279 135 279H459V281ZM135 281C87.5035 281 49 242.496 49 195V49L51 51V195C51 241.392 88.6081 279 135 279V281ZM459 50V280V50Z" fill="#0085FF" mask="url(#path-4-inside-1_152_2)"/>
<mask id="path-6-outside-2_152_2" maskUnits="userSpaceOnUse" x="437" y="166" width="43" height="16" fill="black">
<rect fill="white" x="437" y="166" width="43" height="16"/>
<path d="M438.782 180.46V167.622H478.864V180.46H438.782Z"/>
</mask>
<path d="M438.782 180.46V167.622H478.864V180.46H438.782Z" fill="white"/>
<path d="M438.782 180.46H437.782V181.46H438.782V180.46ZM438.782 167.622V166.622H437.782V167.622H438.782ZM478.864 167.622H479.864V166.622H478.864V167.622ZM478.864 180.46V181.46H479.864V180.46H478.864ZM439.782 180.46V167.622H437.782V180.46H439.782ZM438.782 168.622H478.864V166.622H438.782V168.622ZM477.864 167.622V180.46H479.864V167.622H477.864ZM478.864 179.46H438.782V181.46H478.864V179.46Z" fill="#0085FF" mask="url(#path-6-outside-2_152_2)"/>
<mask id="path-8-outside-3_152_2" maskUnits="userSpaceOnUse" x="72" y="132" width="347" height="68" fill="black">
<rect fill="white" x="72" y="132" width="347" height="68"/>
<path d="M110.324 199L74.045 136.36H87.443L115.457 185.08L143.558 136.36H156.869L120.59 199H110.324ZM174.785 199C172.581 199 170.551 198.449 168.695 197.347C166.897 196.245 165.447 194.795 164.345 192.997C163.301 191.199 162.779 189.198 162.779 186.994V168.028H202.625V160.981C202.625 160.691 202.509 160.459 202.277 160.285C202.103 160.053 201.871 159.937 201.581 159.937H162.779V148.54H202.016C204.22 148.54 206.221 149.091 208.019 150.193C209.875 151.295 211.325 152.745 212.369 154.543C213.471 156.341 214.022 158.342 214.022 160.546V199H174.785ZM175.22 187.603H202.625V178.294H174.176V186.559C174.176 186.849 174.263 187.11 174.437 187.342C174.669 187.516 174.93 187.603 175.22 187.603ZM232.975 199C230.771 199 228.77 198.449 226.972 197.347C225.174 196.245 223.724 194.795 222.622 192.997C221.52 191.199 220.969 189.198 220.969 186.994V185.08H232.366V186.559C232.366 186.849 232.453 187.11 232.627 187.342C232.859 187.516 233.12 187.603 233.41 187.603H259.771C260.061 187.603 260.293 187.516 260.467 187.342C260.699 187.11 260.815 186.849 260.815 186.559V180.556C260.815 180.266 260.699 180.034 260.467 179.86C260.293 179.628 260.061 179.512 259.771 179.512H232.975C230.771 179.512 228.77 178.961 226.972 177.859C225.174 176.757 223.724 175.307 222.622 173.509C221.52 171.711 220.969 169.71 220.969 167.506V160.546C220.969 158.342 221.52 156.341 222.622 154.543C223.724 152.745 225.174 151.295 226.972 150.193C228.77 149.091 230.771 148.54 232.975 148.54H260.206C262.468 148.54 264.498 149.091 266.296 150.193C268.094 151.295 269.544 152.745 270.646 154.543C271.748 156.341 272.299 158.342 272.299 160.546V162.46H260.815V160.981C260.815 160.691 260.699 160.459 260.467 160.285C260.293 160.053 260.061 159.937 259.771 159.937H233.41C233.12 159.937 232.859 160.053 232.627 160.285C232.453 160.459 232.366 160.691 232.366 160.981V166.984C232.366 167.274 232.453 167.535 232.627 167.767C232.859 167.941 233.12 168.028 233.41 168.028H260.206C262.468 168.028 264.498 168.579 266.296 169.681C268.094 170.783 269.544 172.233 270.646 174.031C271.748 175.829 272.299 177.83 272.299 180.034V186.994C272.299 189.198 271.748 191.199 270.646 192.997C269.544 194.795 268.094 196.245 266.296 197.347C264.498 198.449 262.468 199 260.206 199H232.975ZM293.053 199C290.849 199 288.848 198.449 287.05 197.347C285.252 196.245 283.802 194.795 282.7 192.997C281.598 191.199 281.047 189.198 281.047 186.994V133.054H292.444V148.54H312.106V159.937H292.444V186.559C292.444 186.849 292.531 187.11 292.705 187.342C292.937 187.516 293.198 187.603 293.488 187.603H312.106V199H293.053ZM319.702 199V160.546C319.702 158.342 320.253 156.341 321.355 154.543C322.457 152.745 323.907 151.295 325.705 150.193C327.561 149.091 329.562 148.54 331.708 148.54H359.722V159.937H332.143C331.853 159.937 331.592 160.053 331.36 160.285C331.186 160.459 331.099 160.691 331.099 160.981V199H319.702ZM378.351 199C376.147 199 374.117 198.449 372.261 197.347C370.463 196.245 369.013 194.795 367.911 192.997C366.867 191.199 366.345 189.198 366.345 186.994V168.028H406.191V160.981C406.191 160.691 406.075 160.459 405.843 160.285C405.669 160.053 405.437 159.937 405.147 159.937H366.345V148.54H405.582C407.786 148.54 409.787 149.091 411.585 150.193C413.441 151.295 414.891 152.745 415.935 154.543C417.037 156.341 417.588 158.342 417.588 160.546V199H378.351ZM378.786 187.603H406.191V178.294H377.742V186.559C377.742 186.849 377.829 187.11 378.003 187.342C378.235 187.516 378.496 187.603 378.786 187.603Z"/>
</mask>
<path d="M110.324 199L74.045 136.36H87.443L115.457 185.08L143.558 136.36H156.869L120.59 199H110.324ZM174.785 199C172.581 199 170.551 198.449 168.695 197.347C166.897 196.245 165.447 194.795 164.345 192.997C163.301 191.199 162.779 189.198 162.779 186.994V168.028H202.625V160.981C202.625 160.691 202.509 160.459 202.277 160.285C202.103 160.053 201.871 159.937 201.581 159.937H162.779V148.54H202.016C204.22 148.54 206.221 149.091 208.019 150.193C209.875 151.295 211.325 152.745 212.369 154.543C213.471 156.341 214.022 158.342 214.022 160.546V199H174.785ZM175.22 187.603H202.625V178.294H174.176V186.559C174.176 186.849 174.263 187.11 174.437 187.342C174.669 187.516 174.93 187.603 175.22 187.603ZM232.975 199C230.771 199 228.77 198.449 226.972 197.347C225.174 196.245 223.724 194.795 222.622 192.997C221.52 191.199 220.969 189.198 220.969 186.994V185.08H232.366V186.559C232.366 186.849 232.453 187.11 232.627 187.342C232.859 187.516 233.12 187.603 233.41 187.603H259.771C260.061 187.603 260.293 187.516 260.467 187.342C260.699 187.11 260.815 186.849 260.815 186.559V180.556C260.815 180.266 260.699 180.034 260.467 179.86C260.293 179.628 260.061 179.512 259.771 179.512H232.975C230.771 179.512 228.77 178.961 226.972 177.859C225.174 176.757 223.724 175.307 222.622 173.509C221.52 171.711 220.969 169.71 220.969 167.506V160.546C220.969 158.342 221.52 156.341 222.622 154.543C223.724 152.745 225.174 151.295 226.972 150.193C228.77 149.091 230.771 148.54 232.975 148.54H260.206C262.468 148.54 264.498 149.091 266.296 150.193C268.094 151.295 269.544 152.745 270.646 154.543C271.748 156.341 272.299 158.342 272.299 160.546V162.46H260.815V160.981C260.815 160.691 260.699 160.459 260.467 160.285C260.293 160.053 260.061 159.937 259.771 159.937H233.41C233.12 159.937 232.859 160.053 232.627 160.285C232.453 160.459 232.366 160.691 232.366 160.981V166.984C232.366 167.274 232.453 167.535 232.627 167.767C232.859 167.941 233.12 168.028 233.41 168.028H260.206C262.468 168.028 264.498 168.579 266.296 169.681C268.094 170.783 269.544 172.233 270.646 174.031C271.748 175.829 272.299 177.83 272.299 180.034V186.994C272.299 189.198 271.748 191.199 270.646 192.997C269.544 194.795 268.094 196.245 266.296 197.347C264.498 198.449 262.468 199 260.206 199H232.975ZM293.053 199C290.849 199 288.848 198.449 287.05 197.347C285.252 196.245 283.802 194.795 282.7 192.997C281.598 191.199 281.047 189.198 281.047 186.994V133.054H292.444V148.54H312.106V159.937H292.444V186.559C292.444 186.849 292.531 187.11 292.705 187.342C292.937 187.516 293.198 187.603 293.488 187.603H312.106V199H293.053ZM319.702 199V160.546C319.702 158.342 320.253 156.341 321.355 154.543C322.457 152.745 323.907 151.295 325.705 150.193C327.561 149.091 329.562 148.54 331.708 148.54H359.722V159.937H332.143C331.853 159.937 331.592 160.053 331.36 160.285C331.186 160.459 331.099 160.691 331.099 160.981V199H319.702ZM378.351 199C376.147 199 374.117 198.449 372.261 197.347C370.463 196.245 369.013 194.795 367.911 192.997C366.867 191.199 366.345 189.198 366.345 186.994V168.028H406.191V160.981C406.191 160.691 406.075 160.459 405.843 160.285C405.669 160.053 405.437 159.937 405.147 159.937H366.345V148.54H405.582C407.786 148.54 409.787 149.091 411.585 150.193C413.441 151.295 414.891 152.745 415.935 154.543C417.037 156.341 417.588 158.342 417.588 160.546V199H378.351ZM378.786 187.603H406.191V178.294H377.742V186.559C377.742 186.849 377.829 187.11 378.003 187.342C378.235 187.516 378.496 187.603 378.786 187.603Z" fill="#F97316"/>
<path d="M110.324 199L109.459 199.501L109.748 200H110.324V199ZM74.045 136.36V135.36H72.3102L73.1797 136.861L74.045 136.36ZM87.443 136.36L88.3099 135.862L88.0215 135.36H87.443V136.36ZM115.457 185.08L114.59 185.578L115.456 187.084L116.323 185.58L115.457 185.08ZM143.558 136.36V135.36H142.98L142.692 135.86L143.558 136.36ZM156.869 136.36L157.734 136.861L158.604 135.36H156.869V136.36ZM120.59 199V200H121.166L121.455 199.501L120.59 199ZM111.189 198.499L74.9103 135.859L73.1797 136.861L109.459 199.501L111.189 198.499ZM74.045 137.36H87.443V135.36H74.045V137.36ZM86.5761 136.858L114.59 185.578L116.324 184.582L88.3099 135.862L86.5761 136.858ZM116.323 185.58L144.424 136.86L142.692 135.86L114.591 184.58L116.323 185.58ZM143.558 137.36H156.869V135.36H143.558V137.36ZM156.004 135.859L119.725 198.499L121.455 199.501L157.734 136.861L156.004 135.859ZM120.59 198H110.324V200H120.59V198ZM168.695 197.347L168.172 198.2L168.184 198.207L168.695 197.347ZM164.345 192.997L163.48 193.499L163.486 193.509L163.492 193.52L164.345 192.997ZM162.779 168.028V167.028H161.779V168.028H162.779ZM202.625 168.028V169.028H203.625V168.028H202.625ZM202.277 160.285L201.477 160.885L201.563 160.999L201.677 161.085L202.277 160.285ZM162.779 159.937H161.779V160.937H162.779V159.937ZM162.779 148.54V147.54H161.779V148.54H162.779ZM208.019 150.193L207.496 151.046L207.508 151.053L208.019 150.193ZM212.369 154.543L211.504 155.045L211.51 155.055L211.516 155.066L212.369 154.543ZM214.022 199V200H215.022V199H214.022ZM202.625 187.603V188.603H203.625V187.603H202.625ZM202.625 178.294H203.625V177.294H202.625V178.294ZM174.176 178.294V177.294H173.176V178.294H174.176ZM174.437 187.342L173.637 187.942L173.723 188.056L173.837 188.142L174.437 187.342ZM174.785 198C172.757 198 170.904 197.495 169.205 196.487L168.184 198.207C170.198 199.403 172.405 200 174.785 200V198ZM169.217 196.494C167.554 195.475 166.217 194.138 165.197 192.474L163.492 193.52C164.677 195.452 166.24 197.015 168.172 198.2L169.217 196.494ZM165.21 192.495C164.26 190.859 163.779 189.033 163.779 186.994H161.779C161.779 189.363 162.342 191.539 163.48 193.499L165.21 192.495ZM163.779 186.994V168.028H161.779V186.994H163.779ZM162.779 169.028H202.625V167.028H162.779V169.028ZM203.625 168.028V160.981H201.625V168.028H203.625ZM203.625 160.981C203.625 160.376 203.361 159.848 202.877 159.485L201.677 161.085C201.681 161.088 201.678 161.086 201.67 161.077C201.662 161.068 201.652 161.054 201.643 161.037C201.635 161.019 201.63 161.003 201.627 160.991C201.624 160.98 201.625 160.975 201.625 160.981H203.625ZM203.077 159.685C202.714 159.201 202.186 158.937 201.581 158.937V160.937C201.587 160.937 201.582 160.938 201.571 160.935C201.558 160.932 201.543 160.927 201.525 160.918C201.508 160.91 201.494 160.9 201.485 160.892C201.476 160.884 201.474 160.88 201.477 160.885L203.077 159.685ZM201.581 158.937H162.779V160.937H201.581V158.937ZM163.779 159.937V148.54H161.779V159.937H163.779ZM162.779 149.54H202.016V147.54H162.779V149.54ZM202.016 149.54C204.044 149.54 205.863 150.044 207.496 151.046L208.541 149.34C206.579 148.138 204.396 147.54 202.016 147.54V149.54ZM207.508 151.053C209.224 152.071 210.549 153.4 211.504 155.045L213.234 154.041C212.101 152.09 210.526 150.519 208.529 149.333L207.508 151.053ZM211.516 155.066C212.517 156.699 213.022 158.518 213.022 160.546H215.022C215.022 158.166 214.424 155.983 213.221 154.02L211.516 155.066ZM213.022 160.546V199H215.022V160.546H213.022ZM214.022 198H174.785V200H214.022V198ZM175.22 188.603H202.625V186.603H175.22V188.603ZM203.625 187.603V178.294H201.625V187.603H203.625ZM202.625 177.294H174.176V179.294H202.625V177.294ZM173.176 178.294V186.559H175.176V178.294H173.176ZM173.176 186.559C173.176 187.065 173.333 187.537 173.637 187.942L175.237 186.742C175.193 186.683 175.176 186.633 175.176 186.559H173.176ZM173.837 188.142C174.242 188.446 174.714 188.603 175.22 188.603V186.603C175.146 186.603 175.096 186.586 175.037 186.542L173.837 188.142ZM226.972 197.347L227.495 196.494L227.495 196.494L226.972 197.347ZM222.622 192.997L223.475 192.474L223.475 192.474L222.622 192.997ZM220.969 185.08V184.08H219.969V185.08H220.969ZM232.366 185.08H233.366V184.08H232.366V185.08ZM232.627 187.342L231.827 187.942L231.913 188.056L232.027 188.142L232.627 187.342ZM260.467 187.342L261.174 188.049L261.174 188.049L260.467 187.342ZM260.467 179.86L259.667 180.46L259.753 180.574L259.867 180.66L260.467 179.86ZM226.972 177.859L227.495 177.006L227.495 177.006L226.972 177.859ZM226.972 150.193L227.495 151.046L227.495 151.046L226.972 150.193ZM266.296 150.193L265.773 151.046L265.773 151.046L266.296 150.193ZM272.299 162.46V163.46H273.299V162.46H272.299ZM260.815 162.46H259.815V163.46H260.815V162.46ZM260.467 160.285L259.667 160.885L259.753 160.999L259.867 161.085L260.467 160.285ZM232.627 160.285L233.334 160.992L233.334 160.992L232.627 160.285ZM232.627 167.767L231.827 168.367L231.913 168.481L232.027 168.567L232.627 167.767ZM266.296 169.681L265.773 170.534L265.773 170.534L266.296 169.681ZM270.646 174.031L269.793 174.554L269.793 174.554L270.646 174.031ZM270.646 192.997L269.793 192.474L269.793 192.474L270.646 192.997ZM266.296 197.347L265.773 196.494L265.773 196.494L266.296 197.347ZM232.975 198C230.947 198 229.128 197.496 227.495 196.494L226.449 198.2C228.412 199.402 230.595 200 232.975 200V198ZM227.495 196.494C225.831 195.475 224.494 194.138 223.475 192.474L221.769 193.52C222.954 195.452 224.517 197.015 226.449 198.2L227.495 196.494ZM223.475 192.474C222.473 190.841 221.969 189.022 221.969 186.994H219.969C219.969 189.374 220.567 191.557 221.769 193.52L223.475 192.474ZM221.969 186.994V185.08H219.969V186.994H221.969ZM220.969 186.08H232.366V184.08H220.969V186.08ZM231.366 185.08V186.559H233.366V185.08H231.366ZM231.366 186.559C231.366 187.065 231.523 187.537 231.827 187.942L233.427 186.742C233.383 186.683 233.366 186.633 233.366 186.559H231.366ZM232.027 188.142C232.432 188.446 232.904 188.603 233.41 188.603V186.603C233.336 186.603 233.286 186.586 233.227 186.542L232.027 188.142ZM233.41 188.603H259.771V186.603H233.41V188.603ZM259.771 188.603C260.275 188.603 260.779 188.444 261.174 188.049L259.76 186.635C259.766 186.629 259.774 186.622 259.785 186.615C259.795 186.608 259.805 186.604 259.811 186.601C259.825 186.596 259.816 186.603 259.771 186.603V188.603ZM261.174 188.049C261.567 187.656 261.815 187.15 261.815 186.559H259.815C259.815 186.564 259.814 186.566 259.815 186.565C259.815 186.564 259.815 186.564 259.814 186.566C259.813 186.569 259.802 186.593 259.76 186.635L261.174 188.049ZM261.815 186.559V180.556H259.815V186.559H261.815ZM261.815 180.556C261.815 179.951 261.551 179.423 261.067 179.06L259.867 180.66C259.871 180.663 259.868 180.661 259.86 180.652C259.852 180.643 259.842 180.629 259.834 180.612C259.825 180.594 259.82 180.578 259.817 180.566C259.814 180.555 259.815 180.55 259.815 180.556H261.815ZM261.267 179.26C260.904 178.776 260.376 178.512 259.771 178.512V180.512C259.777 180.512 259.772 180.513 259.761 180.51C259.749 180.507 259.733 180.502 259.715 180.493C259.698 180.485 259.684 180.475 259.675 180.467C259.666 180.459 259.664 180.455 259.667 180.46L261.267 179.26ZM259.771 178.512H232.975V180.512H259.771V178.512ZM232.975 178.512C230.947 178.512 229.128 178.008 227.495 177.006L226.449 178.712C228.412 179.914 230.595 180.512 232.975 180.512V178.512ZM227.495 177.006C225.831 175.987 224.494 174.65 223.475 172.986L221.769 174.032C222.954 175.964 224.517 177.527 226.449 178.712L227.495 177.006ZM223.475 172.986C222.473 171.353 221.969 169.534 221.969 167.506H219.969C219.969 169.886 220.567 172.069 221.769 174.032L223.475 172.986ZM221.969 167.506V160.546H219.969V167.506H221.969ZM221.969 160.546C221.969 158.518 222.473 156.699 223.475 155.066L221.769 154.02C220.567 155.983 219.969 158.166 219.969 160.546H221.969ZM223.475 155.066C224.494 153.402 225.831 152.065 227.495 151.046L226.449 149.34C224.517 150.525 222.954 152.088 221.769 154.02L223.475 155.066ZM227.495 151.046C229.128 150.044 230.947 149.54 232.975 149.54V147.54C230.595 147.54 228.412 148.138 226.449 149.34L227.495 151.046ZM232.975 149.54H260.206V147.54H232.975V149.54ZM260.206 149.54C262.297 149.54 264.144 150.047 265.773 151.046L266.819 149.34C264.852 148.135 262.638 147.54 260.206 147.54V149.54ZM265.773 151.046C267.437 152.065 268.774 153.402 269.793 155.066L271.499 154.02C270.314 152.088 268.751 150.525 266.819 149.34L265.773 151.046ZM269.793 155.066C270.795 156.699 271.299 158.518 271.299 160.546H273.299C273.299 158.166 272.701 155.983 271.499 154.02L269.793 155.066ZM271.299 160.546V162.46H273.299V160.546H271.299ZM272.299 161.46H260.815V163.46H272.299V161.46ZM261.815 162.46V160.981H259.815V162.46H261.815ZM261.815 160.981C261.815 160.376 261.551 159.848 261.067 159.485L259.867 161.085C259.871 161.088 259.868 161.086 259.86 161.077C259.852 161.068 259.842 161.054 259.834 161.037C259.825 161.019 259.82 161.003 259.817 160.991C259.814 160.98 259.815 160.975 259.815 160.981H261.815ZM261.267 159.685C260.904 159.201 260.376 158.937 259.771 158.937V160.937C259.777 160.937 259.772 160.938 259.761 160.935C259.749 160.932 259.733 160.927 259.715 160.918C259.698 160.91 259.684 160.9 259.675 160.892C259.666 160.884 259.664 160.88 259.667 160.885L261.267 159.685ZM259.771 158.937H233.41V160.937H259.771V158.937ZM233.41 158.937C232.819 158.937 232.313 159.185 231.92 159.578L233.334 160.992C233.376 160.95 233.4 160.939 233.403 160.938C233.405 160.937 233.405 160.937 233.404 160.937C233.403 160.937 233.405 160.937 233.41 160.937V158.937ZM231.92 159.578C231.525 159.973 231.366 160.477 231.366 160.981H233.366C233.366 160.936 233.373 160.927 233.368 160.941C233.365 160.947 233.361 160.957 233.354 160.967C233.347 160.978 233.34 160.986 233.334 160.992L231.92 159.578ZM231.366 160.981V166.984H233.366V160.981H231.366ZM231.366 166.984C231.366 167.49 231.523 167.962 231.827 168.367L233.427 167.167C233.383 167.108 233.366 167.058 233.366 166.984H231.366ZM232.027 168.567C232.432 168.871 232.904 169.028 233.41 169.028V167.028C233.336 167.028 233.286 167.011 233.227 166.967L232.027 168.567ZM233.41 169.028H260.206V167.028H233.41V169.028ZM260.206 169.028C262.297 169.028 264.144 169.535 265.773 170.534L266.819 168.828C264.852 167.623 262.638 167.028 260.206 167.028V169.028ZM265.773 170.534C267.437 171.553 268.774 172.89 269.793 174.554L271.499 173.508C270.314 171.576 268.751 170.013 266.819 168.828L265.773 170.534ZM269.793 174.554C270.795 176.187 271.299 178.006 271.299 180.034H273.299C273.299 177.654 272.701 175.471 271.499 173.508L269.793 174.554ZM271.299 180.034V186.994H273.299V180.034H271.299ZM271.299 186.994C271.299 189.022 270.795 190.841 269.793 192.474L271.499 193.52C272.701 191.557 273.299 189.374 273.299 186.994H271.299ZM269.793 192.474C268.774 194.138 267.437 195.475 265.773 196.494L266.819 198.2C268.751 197.015 270.314 195.452 271.499 193.52L269.793 192.474ZM265.773 196.494C264.144 197.493 262.297 198 260.206 198V200C262.638 200 264.852 199.405 266.819 198.2L265.773 196.494ZM260.206 198H232.975V200H260.206V198ZM282.7 192.997L283.552 192.474L283.552 192.474L282.7 192.997ZM281.047 133.054V132.054H280.047V133.054H281.047ZM292.444 133.054H293.444V132.054H292.444V133.054ZM292.444 148.54H291.444V149.54H292.444V148.54ZM312.106 148.54H313.106V147.54H312.106V148.54ZM312.106 159.937V160.937H313.106V159.937H312.106ZM292.444 159.937V158.937H291.444V159.937H292.444ZM292.705 187.342L291.905 187.942L291.99 188.056L292.105 188.142L292.705 187.342ZM312.106 187.603H313.106V186.603H312.106V187.603ZM312.106 199V200H313.106V199H312.106ZM293.053 198C291.024 198 289.206 197.496 287.572 196.494L286.527 198.2C288.49 199.402 290.673 200 293.053 200V198ZM287.572 196.494C285.909 195.475 284.572 194.138 283.552 192.474L281.847 193.52C283.031 195.452 284.594 197.015 286.527 198.2L287.572 196.494ZM283.552 192.474C282.551 190.841 282.047 189.022 282.047 186.994H280.047C280.047 189.374 280.644 191.557 281.847 193.52L283.552 192.474ZM282.047 186.994V133.054H280.047V186.994H282.047ZM281.047 134.054H292.444V132.054H281.047V134.054ZM291.444 133.054V148.54H293.444V133.054H291.444ZM292.444 149.54H312.106V147.54H292.444V149.54ZM311.106 148.54V159.937H313.106V148.54H311.106ZM312.106 158.937H292.444V160.937H312.106V158.937ZM291.444 159.937V186.559H293.444V159.937H291.444ZM291.444 186.559C291.444 187.065 291.601 187.537 291.905 187.942L293.505 186.742C293.46 186.683 293.444 186.633 293.444 186.559H291.444ZM292.105 188.142C292.51 188.446 292.981 188.603 293.488 188.603V186.603C293.414 186.603 293.363 186.586 293.305 186.542L292.105 188.142ZM293.488 188.603H312.106V186.603H293.488V188.603ZM311.106 187.603V199H313.106V187.603H311.106ZM312.106 198H293.053V200H312.106V198ZM319.702 199H318.702V200H319.702V199ZM325.705 150.193L325.194 149.333L325.182 149.34L325.705 150.193ZM359.722 148.54H360.722V147.54H359.722V148.54ZM359.722 159.937V160.937H360.722V159.937H359.722ZM331.099 199V200H332.099V199H331.099ZM320.702 199V160.546H318.702V199H320.702ZM320.702 160.546C320.702 158.518 321.206 156.699 322.207 155.066L320.502 154.02C319.299 155.983 318.702 158.166 318.702 160.546H320.702ZM322.207 155.066C323.227 153.402 324.564 152.065 326.227 151.046L325.182 149.34C323.25 150.525 321.687 152.088 320.502 154.02L322.207 155.066ZM326.215 151.053C327.918 150.042 329.743 149.54 331.708 149.54V147.54C329.381 147.54 327.204 148.14 325.194 149.333L326.215 151.053ZM331.708 149.54H359.722V147.54H331.708V149.54ZM358.722 148.54V159.937H360.722V148.54H358.722ZM359.722 158.937H332.143V160.937H359.722V158.937ZM332.143 158.937C331.552 158.937 331.045 159.185 330.653 159.578L332.067 160.992C332.109 160.95 332.133 160.939 332.136 160.938C332.138 160.937 332.138 160.937 332.137 160.937C332.136 160.937 332.137 160.937 332.143 160.937V158.937ZM330.653 159.578C330.258 159.973 330.099 160.477 330.099 160.981H332.099C332.099 160.936 332.105 160.927 332.1 160.941C332.098 160.947 332.093 160.957 332.087 160.967C332.08 160.978 332.073 160.986 332.067 160.992L330.653 159.578ZM330.099 160.981V199H332.099V160.981H330.099ZM331.099 198H319.702V200H331.099V198ZM372.261 197.347L371.739 198.2L371.751 198.207L372.261 197.347ZM367.911 192.997L367.047 193.499L367.052 193.509L367.059 193.52L367.911 192.997ZM366.345 168.028V167.028H365.345V168.028H366.345ZM406.191 168.028V169.028H407.191V168.028H406.191ZM405.843 160.285L405.043 160.885L405.129 160.999L405.243 161.085L405.843 160.285ZM366.345 159.937H365.345V160.937H366.345V159.937ZM366.345 148.54V147.54H365.345V148.54H366.345ZM411.585 150.193L411.063 151.046L411.075 151.053L411.585 150.193ZM415.935 154.543L415.071 155.045L415.076 155.055L415.083 155.066L415.935 154.543ZM417.588 199V200H418.588V199H417.588ZM406.191 187.603V188.603H407.191V187.603H406.191ZM406.191 178.294H407.191V177.294H406.191V178.294ZM377.742 178.294V177.294H376.742V178.294H377.742ZM378.003 187.342L377.203 187.942L377.289 188.056L377.403 188.142L378.003 187.342ZM378.351 198C376.323 198 374.47 197.495 372.772 196.487L371.751 198.207C373.765 199.403 375.972 200 378.351 200V198ZM372.784 196.494C371.12 195.475 369.783 194.138 368.764 192.474L367.059 193.52C368.243 195.452 369.806 197.015 371.739 198.2L372.784 196.494ZM368.776 192.495C367.826 190.859 367.345 189.033 367.345 186.994H365.345C365.345 189.363 365.909 191.539 367.047 193.499L368.776 192.495ZM367.345 186.994V168.028H365.345V186.994H367.345ZM366.345 169.028H406.191V167.028H366.345V169.028ZM407.191 168.028V160.981H405.191V168.028H407.191ZM407.191 160.981C407.191 160.376 406.927 159.848 406.443 159.485L405.243 161.085C405.248 161.088 405.244 161.086 405.236 161.077C405.228 161.068 405.219 161.054 405.21 161.037C405.201 161.019 405.196 161.003 405.193 160.991C405.191 160.98 405.191 160.975 405.191 160.981H407.191ZM406.643 159.685C406.28 159.201 405.752 158.937 405.147 158.937V160.937C405.153 160.937 405.149 160.938 405.137 160.935C405.125 160.932 405.109 160.927 405.092 160.918C405.074 160.91 405.061 160.9 405.051 160.892C405.042 160.884 405.04 160.88 405.043 160.885L406.643 159.685ZM405.147 158.937H366.345V160.937H405.147V158.937ZM367.345 159.937V148.54H365.345V159.937H367.345ZM366.345 149.54H405.582V147.54H366.345V149.54ZM405.582 149.54C407.611 149.54 409.429 150.044 411.063 151.046L412.108 149.34C410.145 148.138 407.962 147.54 405.582 147.54V149.54ZM411.075 151.053C412.79 152.071 414.115 153.4 415.071 155.045L416.8 154.041C415.667 152.09 414.093 150.519 412.096 149.333L411.075 151.053ZM415.083 155.066C416.084 156.699 416.588 158.518 416.588 160.546H418.588C418.588 158.166 417.991 155.983 416.788 154.02L415.083 155.066ZM416.588 160.546V199H418.588V160.546H416.588ZM417.588 198H378.351V200H417.588V198ZM378.786 188.603H406.191V186.603H378.786V188.603ZM407.191 187.603V178.294H405.191V187.603H407.191ZM406.191 177.294H377.742V179.294H406.191V177.294ZM376.742 178.294V186.559H378.742V178.294H376.742ZM376.742 186.559C376.742 187.065 376.899 187.537 377.203 187.942L378.803 186.742C378.759 186.683 378.742 186.633 378.742 186.559H376.742ZM377.403 188.142C377.808 188.446 378.28 188.603 378.786 188.603V186.603C378.713 186.603 378.662 186.586 378.603 186.542L377.403 188.142Z" fill="#FFC700" mask="url(#path-8-outside-3_152_2)"/>
<mask id="path-10-outside-4_152_2" maskUnits="userSpaceOnUse" x="493" y="134" width="317" height="84" fill="black">
<rect fill="white" x="493" y="134" width="317" height="84"/>
<path d="M519.056 199L495.392 137.578H510.008L528.017 187.255H522.014L540.284 137.578H554.726L530.801 199H519.056ZM562.459 199V156.718H575.77V199H562.459ZM569.158 150.889C567.07 150.889 565.33 150.193 563.938 148.801C562.604 147.351 561.937 145.611 561.937 143.581C561.937 141.493 562.604 139.753 563.938 138.361C565.33 136.969 567.07 136.273 569.158 136.273C571.246 136.273 572.957 136.969 574.291 138.361C575.625 139.753 576.292 141.493 576.292 143.581C576.292 145.611 575.625 147.351 574.291 148.801C572.957 150.193 571.246 150.889 569.158 150.889ZM613.941 199L599.151 177.076L613.854 156.718H628.731L610.983 179.599L611.418 174.118L629.601 199H613.941ZM586.884 199V135.838H600.195V199H586.884ZM651.909 199.87C648.023 199.87 644.543 198.913 641.469 196.999C638.453 195.085 636.046 192.475 634.248 189.169C632.508 185.863 631.638 182.093 631.638 177.859C631.638 173.625 632.508 169.855 634.248 166.549C636.046 163.243 638.453 160.633 641.469 158.719C644.543 156.805 648.023 155.848 651.909 155.848C654.751 155.848 657.303 156.399 659.565 157.501C661.885 158.603 663.77 160.14 665.22 162.112C666.67 164.026 667.482 166.23 667.656 168.724V186.994C667.482 189.488 666.67 191.721 665.22 193.693C663.828 195.607 661.972 197.115 659.652 198.217C657.332 199.319 654.751 199.87 651.909 199.87ZM654.606 187.864C657.448 187.864 659.739 186.936 661.479 185.08C663.219 183.166 664.089 180.759 664.089 177.859C664.089 175.887 663.683 174.147 662.871 172.639C662.117 171.131 661.015 169.971 659.565 169.159C658.173 168.289 656.549 167.854 654.693 167.854C652.837 167.854 651.184 168.289 649.734 169.159C648.342 169.971 647.211 171.131 646.341 172.639C645.529 174.147 645.123 175.887 645.123 177.859C645.123 179.773 645.529 181.484 646.341 182.992C647.153 184.5 648.284 185.689 649.734 186.559C651.184 187.429 652.808 187.864 654.606 187.864ZM663.567 199V187.603L665.568 177.337L663.567 167.071V156.718H676.617V199H663.567ZM687.729 199V135.838H701.04V199H687.729ZM736.514 199.87C733.672 199.87 731.062 199.319 728.684 198.217C726.306 197.115 724.363 195.607 722.855 193.693C721.347 191.721 720.477 189.488 720.245 186.994V169.159C720.477 166.665 721.347 164.403 722.855 162.373C724.363 160.343 726.306 158.748 728.684 157.588C731.062 156.428 733.672 155.848 736.514 155.848C740.516 155.848 744.054 156.805 747.128 158.719C750.26 160.633 752.696 163.243 754.436 166.549C756.234 169.855 757.133 173.625 757.133 177.859C757.133 182.093 756.234 185.863 754.436 189.169C752.696 192.475 750.26 195.085 747.128 196.999C744.054 198.913 740.516 199.87 736.514 199.87ZM734.078 187.864C735.992 187.864 737.645 187.429 739.037 186.559C740.487 185.689 741.618 184.5 742.43 182.992C743.242 181.484 743.648 179.773 743.648 177.859C743.648 175.887 743.242 174.147 742.43 172.639C741.618 171.131 740.487 169.971 739.037 169.159C737.645 168.289 736.021 167.854 734.165 167.854C732.309 167.854 730.656 168.289 729.206 169.159C727.814 169.971 726.712 171.131 725.9 172.639C725.088 174.147 724.682 175.887 724.682 177.859C724.682 179.773 725.059 181.484 725.813 182.992C726.625 184.5 727.756 185.689 729.206 186.559C730.656 187.429 732.28 187.864 734.078 187.864ZM712.154 216.835V156.718H725.465V167.593L723.29 177.859L725.291 188.125V216.835H712.154ZM783.296 199.87C779.41 199.87 775.93 198.913 772.856 196.999C769.84 195.085 767.433 192.475 765.635 189.169C763.895 185.863 763.025 182.093 763.025 177.859C763.025 173.625 763.895 169.855 765.635 166.549C767.433 163.243 769.84 160.633 772.856 158.719C775.93 156.805 779.41 155.848 783.296 155.848C786.138 155.848 788.69 156.399 790.952 157.501C793.272 158.603 795.157 160.14 796.607 162.112C798.057 164.026 798.869 166.23 799.043 168.724V186.994C798.869 189.488 798.057 191.721 796.607 193.693C795.215 195.607 793.359 197.115 791.039 198.217C788.719 199.319 786.138 199.87 783.296 199.87ZM785.993 187.864C788.835 187.864 791.126 186.936 792.866 185.08C794.606 183.166 795.476 180.759 795.476 177.859C795.476 175.887 795.07 174.147 794.258 172.639C793.504 171.131 792.402 169.971 790.952 169.159C789.56 168.289 787.936 167.854 786.08 167.854C784.224 167.854 782.571 168.289 781.121 169.159C779.729 169.971 778.598 171.131 777.728 172.639C776.916 174.147 776.51 175.887 776.51 177.859C776.51 179.773 776.916 181.484 777.728 182.992C778.54 184.5 779.671 185.689 781.121 186.559C782.571 187.429 784.195 187.864 785.993 187.864ZM794.954 199V187.603L796.955 177.337L794.954 167.071V156.718H808.004V199H794.954Z"/>
</mask>
<path d="M519.056 199L495.392 137.578H510.008L528.017 187.255H522.014L540.284 137.578H554.726L530.801 199H519.056ZM562.459 199V156.718H575.77V199H562.459ZM569.158 150.889C567.07 150.889 565.33 150.193 563.938 148.801C562.604 147.351 561.937 145.611 561.937 143.581C561.937 141.493 562.604 139.753 563.938 138.361C565.33 136.969 567.07 136.273 569.158 136.273C571.246 136.273 572.957 136.969 574.291 138.361C575.625 139.753 576.292 141.493 576.292 143.581C576.292 145.611 575.625 147.351 574.291 148.801C572.957 150.193 571.246 150.889 569.158 150.889ZM613.941 199L599.151 177.076L613.854 156.718H628.731L610.983 179.599L611.418 174.118L629.601 199H613.941ZM586.884 199V135.838H600.195V199H586.884ZM651.909 199.87C648.023 199.87 644.543 198.913 641.469 196.999C638.453 195.085 636.046 192.475 634.248 189.169C632.508 185.863 631.638 182.093 631.638 177.859C631.638 173.625 632.508 169.855 634.248 166.549C636.046 163.243 638.453 160.633 641.469 158.719C644.543 156.805 648.023 155.848 651.909 155.848C654.751 155.848 657.303 156.399 659.565 157.501C661.885 158.603 663.77 160.14 665.22 162.112C666.67 164.026 667.482 166.23 667.656 168.724V186.994C667.482 189.488 666.67 191.721 665.22 193.693C663.828 195.607 661.972 197.115 659.652 198.217C657.332 199.319 654.751 199.87 651.909 199.87ZM654.606 187.864C657.448 187.864 659.739 186.936 661.479 185.08C663.219 183.166 664.089 180.759 664.089 177.859C664.089 175.887 663.683 174.147 662.871 172.639C662.117 171.131 661.015 169.971 659.565 169.159C658.173 168.289 656.549 167.854 654.693 167.854C652.837 167.854 651.184 168.289 649.734 169.159C648.342 169.971 647.211 171.131 646.341 172.639C645.529 174.147 645.123 175.887 645.123 177.859C645.123 179.773 645.529 181.484 646.341 182.992C647.153 184.5 648.284 185.689 649.734 186.559C651.184 187.429 652.808 187.864 654.606 187.864ZM663.567 199V187.603L665.568 177.337L663.567 167.071V156.718H676.617V199H663.567ZM687.729 199V135.838H701.04V199H687.729ZM736.514 199.87C733.672 199.87 731.062 199.319 728.684 198.217C726.306 197.115 724.363 195.607 722.855 193.693C721.347 191.721 720.477 189.488 720.245 186.994V169.159C720.477 166.665 721.347 164.403 722.855 162.373C724.363 160.343 726.306 158.748 728.684 157.588C731.062 156.428 733.672 155.848 736.514 155.848C740.516 155.848 744.054 156.805 747.128 158.719C750.26 160.633 752.696 163.243 754.436 166.549C756.234 169.855 757.133 173.625 757.133 177.859C757.133 182.093 756.234 185.863 754.436 189.169C752.696 192.475 750.26 195.085 747.128 196.999C744.054 198.913 740.516 199.87 736.514 199.87ZM734.078 187.864C735.992 187.864 737.645 187.429 739.037 186.559C740.487 185.689 741.618 184.5 742.43 182.992C743.242 181.484 743.648 179.773 743.648 177.859C743.648 175.887 743.242 174.147 742.43 172.639C741.618 171.131 740.487 169.971 739.037 169.159C737.645 168.289 736.021 167.854 734.165 167.854C732.309 167.854 730.656 168.289 729.206 169.159C727.814 169.971 726.712 171.131 725.9 172.639C725.088 174.147 724.682 175.887 724.682 177.859C724.682 179.773 725.059 181.484 725.813 182.992C726.625 184.5 727.756 185.689 729.206 186.559C730.656 187.429 732.28 187.864 734.078 187.864ZM712.154 216.835V156.718H725.465V167.593L723.29 177.859L725.291 188.125V216.835H712.154ZM783.296 199.87C779.41 199.87 775.93 198.913 772.856 196.999C769.84 195.085 767.433 192.475 765.635 189.169C763.895 185.863 763.025 182.093 763.025 177.859C763.025 173.625 763.895 169.855 765.635 166.549C767.433 163.243 769.84 160.633 772.856 158.719C775.93 156.805 779.41 155.848 783.296 155.848C786.138 155.848 788.69 156.399 790.952 157.501C793.272 158.603 795.157 160.14 796.607 162.112C798.057 164.026 798.869 166.23 799.043 168.724V186.994C798.869 189.488 798.057 191.721 796.607 193.693C795.215 195.607 793.359 197.115 791.039 198.217C788.719 199.319 786.138 199.87 783.296 199.87ZM785.993 187.864C788.835 187.864 791.126 186.936 792.866 185.08C794.606 183.166 795.476 180.759 795.476 177.859C795.476 175.887 795.07 174.147 794.258 172.639C793.504 171.131 792.402 169.971 790.952 169.159C789.56 168.289 787.936 167.854 786.08 167.854C784.224 167.854 782.571 168.289 781.121 169.159C779.729 169.971 778.598 171.131 777.728 172.639C776.916 174.147 776.51 175.887 776.51 177.859C776.51 179.773 776.916 181.484 777.728 182.992C778.54 184.5 779.671 185.689 781.121 186.559C782.571 187.429 784.195 187.864 785.993 187.864ZM794.954 199V187.603L796.955 177.337L794.954 167.071V156.718H808.004V199H794.954Z" fill="#0F1019"/>
<path d="M519.056 199L518.123 199.36L518.37 200H519.056V199ZM495.392 137.578V136.578H493.935L494.459 137.938L495.392 137.578ZM510.008 137.578L510.948 137.237L510.709 136.578H510.008V137.578ZM528.017 187.255V188.255H529.443L528.957 186.914L528.017 187.255ZM522.014 187.255L521.075 186.91L520.581 188.255H522.014V187.255ZM540.284 137.578V136.578H539.586L539.345 137.233L540.284 137.578ZM554.726 137.578L555.658 137.941L556.189 136.578H554.726V137.578ZM530.801 199V200H531.485L531.733 199.363L530.801 199ZM519.989 198.64L496.325 137.218L494.459 137.938L518.123 199.36L519.989 198.64ZM495.392 138.578H510.008V136.578H495.392V138.578ZM509.068 137.919L527.077 187.596L528.957 186.914L510.948 137.237L509.068 137.919ZM528.017 186.255H522.014V188.255H528.017V186.255ZM522.953 187.6L541.223 137.923L539.345 137.233L521.075 186.91L522.953 187.6ZM540.284 138.578H554.726V136.578H540.284V138.578ZM553.794 137.215L529.869 198.637L531.733 199.363L555.658 137.941L553.794 137.215ZM530.801 198H519.056V200H530.801V198ZM562.459 199H561.459V200H562.459V199ZM562.459 156.718V155.718H561.459V156.718H562.459ZM575.77 156.718H576.77V155.718H575.77V156.718ZM575.77 199V200H576.77V199H575.77ZM563.938 148.801L563.203 149.478L563.217 149.493L563.231 149.508L563.938 148.801ZM563.938 138.361L563.231 137.654L563.224 137.661L563.216 137.669L563.938 138.361ZM574.291 148.801L575.013 149.493L575.021 149.486L575.027 149.478L574.291 148.801ZM563.459 199V156.718H561.459V199H563.459ZM562.459 157.718H575.77V155.718H562.459V157.718ZM574.77 156.718V199H576.77V156.718H574.77ZM575.77 198H562.459V200H575.77V198ZM569.158 149.889C567.318 149.889 565.838 149.286 564.646 148.094L563.231 149.508C564.823 151.1 566.823 151.889 569.158 151.889V149.889ZM564.674 148.124C563.516 146.865 562.937 145.369 562.937 143.581H560.937C560.937 145.853 561.693 147.837 563.203 149.478L564.674 148.124ZM562.937 143.581C562.937 141.727 563.52 140.242 564.66 139.053L563.216 137.669C561.688 139.264 560.937 141.259 560.937 143.581H562.937ZM564.646 139.068C565.838 137.876 567.318 137.273 569.158 137.273V135.273C566.823 135.273 564.823 136.062 563.231 137.654L564.646 139.068ZM569.158 137.273C570.999 137.273 572.441 137.875 573.569 139.053L575.013 137.669C573.474 136.063 571.494 135.273 569.158 135.273V137.273ZM573.569 139.053C574.709 140.242 575.292 141.727 575.292 143.581H577.292C577.292 141.259 576.541 139.264 575.013 137.669L573.569 139.053ZM575.292 143.581C575.292 145.369 574.714 146.865 573.556 148.124L575.027 149.478C576.537 147.837 577.292 145.853 577.292 143.581H575.292ZM573.569 148.109C572.441 149.287 570.999 149.889 569.158 149.889V151.889C571.494 151.889 573.474 151.099 575.013 149.493L573.569 148.109ZM613.941 199L613.112 199.559L613.409 200H613.941V199ZM599.151 177.076L598.34 176.491L597.932 177.056L598.322 177.635L599.151 177.076ZM613.854 156.718V155.718H613.343L613.043 156.133L613.854 156.718ZM628.731 156.718L629.521 157.331L630.772 155.718H628.731V156.718ZM610.983 179.599L609.986 179.52L609.721 182.857L611.773 180.212L610.983 179.599ZM611.418 174.118L612.225 173.528L610.635 171.351L610.421 174.039L611.418 174.118ZM629.601 199V200H631.57L630.408 198.41L629.601 199ZM586.884 199H585.884V200H586.884V199ZM586.884 135.838V134.838H585.884V135.838H586.884ZM600.195 135.838H601.195V134.838H600.195V135.838ZM600.195 199V200H601.195V199H600.195ZM614.77 198.441L599.98 176.517L598.322 177.635L613.112 199.559L614.77 198.441ZM599.962 177.661L614.665 157.303L613.043 156.133L598.34 176.491L599.962 177.661ZM613.854 157.718H628.731V155.718H613.854V157.718ZM627.941 156.105L610.193 178.986L611.773 180.212L629.521 157.331L627.941 156.105ZM611.98 179.678L612.415 174.197L610.421 174.039L609.986 179.52L611.98 179.678ZM610.611 174.708L628.794 199.59L630.408 198.41L612.225 173.528L610.611 174.708ZM629.601 198H613.941V200H629.601V198ZM587.884 199V135.838H585.884V199H587.884ZM586.884 136.838H600.195V134.838H586.884V136.838ZM599.195 135.838V199H601.195V135.838H599.195ZM600.195 198H586.884V200H600.195V198ZM641.469 196.999L640.933 197.843L640.941 197.848L641.469 196.999ZM634.248 189.169L633.363 189.635L633.37 189.647L634.248 189.169ZM634.248 166.549L633.37 166.071L633.363 166.083L634.248 166.549ZM641.469 158.719L640.941 157.87L640.933 157.875L641.469 158.719ZM659.565 157.501L659.127 158.4L659.136 158.404L659.565 157.501ZM665.22 162.112L664.414 162.704L664.419 162.71L664.423 162.716L665.22 162.112ZM667.656 168.724H668.656V168.689L668.654 168.654L667.656 168.724ZM667.656 186.994L668.654 187.064L668.656 187.029V186.994H667.656ZM665.22 193.693L664.414 193.101L664.411 193.105L665.22 193.693ZM659.652 198.217L659.223 197.314L659.652 198.217ZM661.479 185.08L662.209 185.764L662.214 185.758L662.219 185.753L661.479 185.08ZM662.871 172.639L661.977 173.086L661.983 173.1L661.991 173.113L662.871 172.639ZM659.565 169.159L659.035 170.007L659.055 170.02L659.076 170.032L659.565 169.159ZM649.734 169.159L650.238 170.023L650.249 170.016L649.734 169.159ZM646.341 172.639L645.475 172.139L645.468 172.152L645.461 172.165L646.341 172.639ZM646.341 182.992L645.461 183.466L645.461 183.466L646.341 182.992ZM663.567 199H662.567V200H663.567V199ZM663.567 187.603L662.586 187.412L662.567 187.506V187.603H663.567ZM665.568 177.337L666.55 177.528L666.587 177.337L666.55 177.146L665.568 177.337ZM663.567 167.071H662.567V167.168L662.586 167.262L663.567 167.071ZM663.567 156.718V155.718H662.567V156.718H663.567ZM676.617 156.718H677.617V155.718H676.617V156.718ZM676.617 199V200H677.617V199H676.617ZM651.909 198.87C648.196 198.87 644.901 197.958 641.998 196.15L640.941 197.848C644.185 199.868 647.85 200.87 651.909 200.87V198.87ZM642.005 196.155C639.14 194.337 636.848 191.856 635.127 188.691L633.37 189.647C635.244 193.094 637.766 195.833 640.933 197.843L642.005 196.155ZM635.133 188.703C633.478 185.559 632.638 181.953 632.638 177.859H630.638C630.638 182.233 631.538 186.167 633.363 189.635L635.133 188.703ZM632.638 177.859C632.638 173.765 633.478 170.159 635.133 167.015L633.363 166.083C631.538 169.551 630.638 173.485 630.638 177.859H632.638ZM635.127 167.027C636.848 163.862 639.14 161.381 642.005 159.563L640.933 157.875C637.766 159.885 635.244 162.624 633.37 166.071L635.127 167.027ZM641.998 159.568C644.901 157.76 648.196 156.848 651.909 156.848V154.848C647.85 154.848 644.185 155.85 640.941 157.87L641.998 159.568ZM651.909 156.848C654.619 156.848 657.018 157.373 659.127 158.4L660.003 156.602C657.588 155.425 654.883 154.848 651.909 154.848V156.848ZM659.136 158.404C661.314 159.439 663.067 160.872 664.414 162.704L666.026 161.52C664.473 159.408 662.456 157.767 659.994 156.598L659.136 158.404ZM664.423 162.716C665.751 164.468 666.497 166.485 666.659 168.794L668.654 168.654C668.467 165.975 667.589 163.584 666.017 161.508L664.423 162.716ZM666.656 168.724V186.994H668.656V168.724H666.656ZM666.659 186.924C666.497 189.234 665.75 191.285 664.414 193.101L666.026 194.285C667.59 192.157 668.467 189.742 668.654 187.064L666.659 186.924ZM664.411 193.105C663.126 194.872 661.405 196.277 659.223 197.314L660.081 199.12C662.539 197.953 664.53 196.342 666.029 194.281L664.411 193.105ZM659.223 197.314C657.051 198.346 654.619 198.87 651.909 198.87V200.87C654.884 200.87 657.613 200.292 660.081 199.12L659.223 197.314ZM654.606 188.864C657.689 188.864 660.256 187.846 662.209 185.764L660.75 184.396C659.222 186.026 657.207 186.864 654.606 186.864V188.864ZM662.219 185.753C664.147 183.632 665.089 180.975 665.089 177.859H663.089C663.089 180.543 662.291 182.7 660.739 184.407L662.219 185.753ZM665.089 177.859C665.089 175.747 664.653 173.839 663.752 172.165L661.991 173.113C662.713 174.455 663.089 176.027 663.089 177.859H665.089ZM663.766 172.192C662.923 170.507 661.681 169.198 660.054 168.286L659.076 170.032C660.349 170.744 661.311 171.755 661.977 173.086L663.766 172.192ZM660.095 168.311C658.524 167.329 656.711 166.854 654.693 166.854V168.854C656.387 168.854 657.822 169.249 659.035 170.007L660.095 168.311ZM654.693 166.854C652.674 166.854 650.84 167.329 649.22 168.302L650.249 170.016C651.528 169.249 653 168.854 654.693 168.854V166.854ZM649.23 168.295C647.676 169.202 646.425 170.493 645.475 172.139L647.207 173.139C647.997 171.769 649.008 170.74 650.238 170.023L649.23 168.295ZM645.461 172.165C644.559 173.839 644.123 175.747 644.123 177.859H646.123C646.123 176.027 646.499 174.455 647.222 173.113L645.461 172.165ZM644.123 177.859C644.123 179.919 644.561 181.796 645.461 183.466L647.222 182.518C646.497 181.172 646.123 179.627 646.123 177.859H644.123ZM645.461 183.466C646.357 185.13 647.613 186.453 649.22 187.416L650.249 185.702C648.955 184.925 647.949 183.87 647.222 182.518L645.461 183.466ZM649.22 187.416C650.835 188.386 652.639 188.864 654.606 188.864V186.864C652.977 186.864 651.533 186.472 650.249 185.702L649.22 187.416ZM664.567 199V187.603H662.567V199H664.567ZM664.549 187.794L666.55 177.528L664.587 177.146L662.586 187.412L664.549 187.794ZM666.55 177.146L664.549 166.88L662.586 167.262L664.587 177.528L666.55 177.146ZM664.567 167.071V156.718H662.567V167.071H664.567ZM663.567 157.718H676.617V155.718H663.567V157.718ZM675.617 156.718V199H677.617V156.718H675.617ZM676.617 198H663.567V200H676.617V198ZM687.729 199H686.729V200H687.729V199ZM687.729 135.838V134.838H686.729V135.838H687.729ZM701.04 135.838H702.04V134.838H701.04V135.838ZM701.04 199V200H702.04V199H701.04ZM688.729 199V135.838H686.729V199H688.729ZM687.729 136.838H701.04V134.838H687.729V136.838ZM700.04 135.838V199H702.04V135.838H700.04ZM701.04 198H687.729V200H701.04V198ZM728.684 198.217L729.104 197.31L729.104 197.31L728.684 198.217ZM722.855 193.693L722.06 194.3L722.065 194.306L722.069 194.312L722.855 193.693ZM720.245 186.994H719.245V187.04L719.249 187.087L720.245 186.994ZM720.245 169.159L719.249 169.066L719.245 169.113V169.159H720.245ZM722.855 162.373L722.052 161.777L722.052 161.777L722.855 162.373ZM728.684 157.588L729.122 158.487L729.122 158.487L728.684 157.588ZM747.128 158.719L746.599 159.568L746.606 159.572L747.128 158.719ZM754.436 166.549L753.551 167.015L753.557 167.027L754.436 166.549ZM754.436 189.169L753.557 188.691L753.551 188.703L754.436 189.169ZM747.128 196.999L746.606 196.146L746.599 196.15L747.128 196.999ZM739.037 186.559L738.522 185.702L738.515 185.706L738.507 185.711L739.037 186.559ZM742.43 182.992L741.549 182.518L741.549 182.518L742.43 182.992ZM742.43 172.639L741.549 173.113L741.549 173.113L742.43 172.639ZM739.037 169.159L738.507 170.007L738.527 170.02L738.548 170.032L739.037 169.159ZM729.206 169.159L729.71 170.023L729.72 170.016L729.206 169.159ZM725.9 172.639L726.78 173.113L726.78 173.113L725.9 172.639ZM725.813 182.992L724.918 183.439L724.925 183.453L724.932 183.466L725.813 182.992ZM729.206 186.559L728.691 187.416L728.691 187.416L729.206 186.559ZM712.154 216.835H711.154V217.835H712.154V216.835ZM712.154 156.718V155.718H711.154V156.718H712.154ZM725.465 156.718H726.465V155.718H725.465V156.718ZM725.465 167.593L726.443 167.8L726.465 167.698V167.593H725.465ZM723.29 177.859L722.312 177.652L722.269 177.851L722.308 178.05L723.29 177.859ZM725.291 188.125H726.291V188.028L726.272 187.934L725.291 188.125ZM725.291 216.835V217.835H726.291V216.835H725.291ZM736.514 198.87C733.805 198.87 731.34 198.346 729.104 197.31L728.263 199.124C730.784 200.292 733.539 200.87 736.514 200.87V198.87ZM729.104 197.31C726.858 196.269 725.044 194.855 723.64 193.074L722.069 194.312C723.682 196.359 725.754 197.961 728.263 199.124L729.104 197.31ZM723.649 193.086C722.256 191.264 721.455 189.21 721.241 186.901L719.249 187.087C719.498 189.766 720.437 192.178 722.06 194.3L723.649 193.086ZM721.245 186.994V169.159H719.245V186.994H721.245ZM721.241 169.252C721.455 166.942 722.258 164.854 723.658 162.969L722.052 161.777C720.436 163.952 719.498 166.388 719.249 169.066L721.241 169.252ZM723.658 162.969C725.066 161.074 726.881 159.58 729.122 158.487L728.245 156.689C725.73 157.916 723.66 159.612 722.052 161.777L723.658 162.969ZM729.122 158.487C731.354 157.398 733.812 156.848 736.514 156.848V154.848C733.531 154.848 730.77 155.458 728.245 156.689L729.122 158.487ZM736.514 156.848C740.349 156.848 743.7 157.763 746.599 159.568L747.656 157.87C744.407 155.847 740.682 154.848 736.514 154.848V156.848ZM746.606 159.572C749.582 161.39 751.893 163.865 753.551 167.015L755.321 166.083C753.498 162.621 750.938 159.876 747.649 157.866L746.606 159.572ZM753.557 167.027C755.266 170.169 756.133 173.771 756.133 177.859H758.133C758.133 173.479 757.202 169.541 755.314 166.071L753.557 167.027ZM756.133 177.859C756.133 181.947 755.266 185.549 753.557 188.691L755.314 189.647C757.202 186.177 758.133 182.239 758.133 177.859H756.133ZM753.551 188.703C751.893 191.853 749.582 194.328 746.606 196.146L747.649 197.852C750.938 195.842 753.498 193.097 755.321 189.635L753.551 188.703ZM746.599 196.15C743.7 197.955 740.349 198.87 736.514 198.87V200.87C740.682 200.87 744.407 199.871 747.656 197.848L746.599 196.15ZM734.078 188.864C736.148 188.864 737.991 188.392 739.567 187.407L738.507 185.711C737.299 186.466 735.836 186.864 734.078 186.864V188.864ZM739.551 187.416C741.158 186.453 742.414 185.13 743.31 183.466L741.549 182.518C740.822 183.87 739.816 184.925 738.522 185.702L739.551 187.416ZM743.31 183.466C744.21 181.796 744.648 179.919 744.648 177.859H742.648C742.648 179.627 742.274 181.172 741.549 182.518L743.31 183.466ZM744.648 177.859C744.648 175.747 744.212 173.839 743.31 172.165L741.549 173.113C742.272 174.455 742.648 176.027 742.648 177.859H744.648ZM743.31 172.165C742.411 170.495 741.147 169.194 739.525 168.286L738.548 170.032C739.827 170.748 740.825 171.767 741.549 173.113L743.31 172.165ZM739.567 168.311C737.996 167.329 736.183 166.854 734.165 166.854V168.854C735.859 168.854 737.294 169.249 738.507 170.007L739.567 168.311ZM734.165 166.854C732.146 166.854 730.312 167.329 728.691 168.302L729.72 170.016C731 169.249 732.472 168.854 734.165 168.854V166.854ZM728.702 168.295C727.141 169.206 725.913 170.505 725.019 172.165L726.78 173.113C727.511 171.757 728.487 170.736 729.71 170.023L728.702 168.295ZM725.019 172.165C724.118 173.839 723.682 175.747 723.682 177.859H725.682C725.682 176.027 726.058 174.455 726.78 173.113L725.019 172.165ZM723.682 177.859C723.682 179.907 724.086 181.775 724.918 183.439L726.707 182.545C726.032 181.193 725.682 179.639 725.682 177.859H723.682ZM724.932 183.466C725.829 185.13 727.085 186.453 728.691 187.416L729.72 185.702C728.427 184.925 727.421 183.87 726.693 182.518L724.932 183.466ZM728.691 187.416C730.307 188.386 732.111 188.864 734.078 188.864V186.864C732.449 186.864 731.005 186.472 729.72 185.702L728.691 187.416ZM713.154 216.835V156.718H711.154V216.835H713.154ZM712.154 157.718H725.465V155.718H712.154V157.718ZM724.465 156.718V167.593H726.465V156.718H724.465ZM724.487 167.386L722.312 177.652L724.268 178.066L726.443 167.8L724.487 167.386ZM722.308 178.05L724.309 188.316L726.272 187.934L724.271 177.668L722.308 178.05ZM724.291 188.125V216.835H726.291V188.125H724.291ZM725.291 215.835H712.154V217.835H725.291V215.835ZM772.856 196.999L772.32 197.843L772.328 197.848L772.856 196.999ZM765.635 189.169L764.75 189.635L764.757 189.647L765.635 189.169ZM765.635 166.549L764.757 166.071L764.75 166.083L765.635 166.549ZM772.856 158.719L772.327 157.87L772.32 157.875L772.856 158.719ZM790.952 157.501L790.514 158.4L790.523 158.404L790.952 157.501ZM796.607 162.112L795.801 162.704L795.806 162.71L795.81 162.716L796.607 162.112ZM799.043 168.724H800.043V168.689L800.041 168.654L799.043 168.724ZM799.043 186.994L800.041 187.064L800.043 187.029V186.994H799.043ZM796.607 193.693L795.801 193.101L795.798 193.105L796.607 193.693ZM791.039 198.217L790.61 197.314L791.039 198.217ZM792.866 185.08L793.596 185.764L793.601 185.758L793.606 185.753L792.866 185.08ZM794.258 172.639L793.364 173.086L793.37 173.1L793.378 173.113L794.258 172.639ZM790.952 169.159L790.422 170.007L790.442 170.02L790.463 170.032L790.952 169.159ZM781.121 169.159L781.625 170.023L781.636 170.016L781.121 169.159ZM777.728 172.639L776.862 172.139L776.855 172.152L776.848 172.165L777.728 172.639ZM777.728 182.992L776.848 183.466L776.848 183.466L777.728 182.992ZM794.954 199H793.954V200H794.954V199ZM794.954 187.603L793.973 187.412L793.954 187.506V187.603H794.954ZM796.955 177.337L797.937 177.528L797.974 177.337L797.937 177.146L796.955 177.337ZM794.954 167.071H793.954V167.168L793.973 167.262L794.954 167.071ZM794.954 156.718V155.718H793.954V156.718H794.954ZM808.004 156.718H809.004V155.718H808.004V156.718ZM808.004 199V200H809.004V199H808.004ZM783.296 198.87C779.583 198.87 776.288 197.958 773.385 196.15L772.328 197.848C775.572 199.868 779.237 200.87 783.296 200.87V198.87ZM773.392 196.155C770.527 194.337 768.235 191.856 766.514 188.691L764.757 189.647C766.631 193.094 769.153 195.833 772.32 197.843L773.392 196.155ZM766.52 188.703C764.865 185.559 764.025 181.953 764.025 177.859H762.025C762.025 182.233 762.925 186.167 764.75 189.635L766.52 188.703ZM764.025 177.859C764.025 173.765 764.865 170.159 766.52 167.015L764.75 166.083C762.925 169.551 762.025 173.485 762.025 177.859H764.025ZM766.514 167.027C768.235 163.862 770.527 161.381 773.392 159.563L772.32 157.875C769.153 159.885 766.631 162.624 764.757 166.071L766.514 167.027ZM773.385 159.568C776.288 157.76 779.583 156.848 783.296 156.848V154.848C779.237 154.848 775.572 155.85 772.328 157.87L773.385 159.568ZM783.296 156.848C786.006 156.848 788.405 157.373 790.514 158.4L791.39 156.602C788.975 155.425 786.27 154.848 783.296 154.848V156.848ZM790.523 158.404C792.701 159.439 794.454 160.872 795.801 162.704L797.413 161.52C795.86 159.408 793.843 157.767 791.381 156.598L790.523 158.404ZM795.81 162.716C797.138 164.468 797.884 166.485 798.045 168.794L800.041 168.654C799.854 165.975 798.976 163.584 797.404 161.508L795.81 162.716ZM798.043 168.724V186.994H800.043V168.724H798.043ZM798.045 186.924C797.884 189.234 797.137 191.285 795.801 193.101L797.413 194.285C798.977 192.157 799.854 189.742 800.041 187.064L798.045 186.924ZM795.798 193.105C794.513 194.872 792.792 196.277 790.61 197.314L791.468 199.12C793.926 197.953 795.917 196.342 797.416 194.281L795.798 193.105ZM790.61 197.314C788.438 198.346 786.006 198.87 783.296 198.87V200.87C786.271 200.87 789 200.292 791.468 199.12L790.61 197.314ZM785.993 188.864C789.076 188.864 791.643 187.846 793.596 185.764L792.137 184.396C790.609 186.026 788.594 186.864 785.993 186.864V188.864ZM793.606 185.753C795.534 183.632 796.476 180.975 796.476 177.859H794.476C794.476 180.543 793.678 182.7 792.126 184.407L793.606 185.753ZM796.476 177.859C796.476 175.747 796.04 173.839 795.139 172.165L793.378 173.113C794.1 174.455 794.476 176.027 794.476 177.859H796.476ZM795.153 172.192C794.31 170.507 793.068 169.198 791.441 168.286L790.463 170.032C791.736 170.744 792.698 171.755 793.364 173.086L795.153 172.192ZM791.482 168.311C789.911 167.329 788.098 166.854 786.08 166.854V168.854C787.774 168.854 789.209 169.249 790.422 170.007L791.482 168.311ZM786.08 166.854C784.061 166.854 782.227 167.329 780.607 168.302L781.636 170.016C782.915 169.249 784.387 168.854 786.08 168.854V166.854ZM780.617 168.295C779.063 169.202 777.812 170.493 776.862 172.139L778.594 173.139C779.384 171.769 780.395 170.74 781.625 170.023L780.617 168.295ZM776.848 172.165C775.946 173.839 775.51 175.747 775.51 177.859H777.51C777.51 176.027 777.886 174.455 778.609 173.113L776.848 172.165ZM775.51 177.859C775.51 179.919 775.948 181.796 776.848 183.466L778.609 182.518C777.884 181.172 777.51 179.627 777.51 177.859H775.51ZM776.848 183.466C777.744 185.13 779 186.453 780.607 187.416L781.636 185.702C780.342 184.925 779.336 183.87 778.609 182.518L776.848 183.466ZM780.607 187.416C782.222 188.386 784.026 188.864 785.993 188.864V186.864C784.364 186.864 782.92 186.472 781.636 185.702L780.607 187.416ZM795.954 199V187.603H793.954V199H795.954ZM795.936 187.794L797.937 177.528L795.974 177.146L793.973 187.412L795.936 187.794ZM797.937 177.146L795.936 166.88L793.973 167.262L795.974 177.528L797.937 177.146ZM795.954 167.071V156.718H793.954V167.071H795.954ZM794.954 157.718H808.004V155.718H794.954V157.718ZM807.004 156.718V199H809.004V156.718H807.004ZM808.004 198H794.954V200H808.004V198Z" fill="#0085FF" mask="url(#path-10-outside-4_152_2)"/>
</svg>
