<svg width="753" height="253" viewBox="0 0 753 253" fill="none" xmlns="http://www.w3.org/2000/svg">
<g clip-path="url(#clip0_121_2)">
<rect x="15.5" y="15.5" width="722" height="222" stroke="#F97316" strokeWidth="31"/>
<mask id="path-2-inside-1_121_2" fill="white">
<path d="M402 32H724V222H402V32Z"/>
</mask>
<path d="M402 32H724V222H402V32Z" fill="#F97316"/>
<path d="M402 31.5H401.5V32.5H402V31.5ZM724 32H724.5C724.5 31.7239 724.276 31.5 724 31.5V32ZM724 222V222.5C724.276 222.5 724.5 222.276 724.5 222H724ZM402 221.5H401.5V222.5H402V221.5ZM404.516 222.5H405.016V221.5H404.516V222.5ZM409.547 221.5H409.047V222.5H409.547V221.5ZM414.578 222.5H415.078V221.5H414.578V222.5ZM419.609 221.5H419.109V222.5H419.609V221.5ZM424.641 222.5H425.141V221.5H424.641V222.5ZM429.672 221.5H429.172V222.5H429.672V221.5ZM434.703 222.5H435.203V221.5H434.703V222.5ZM439.734 221.5H439.234V222.5H439.734V221.5ZM444.766 222.5H445.266V221.5H444.766V222.5ZM449.797 221.5H449.297V222.5H449.797V221.5ZM454.828 222.5H455.328V221.5H454.828V222.5ZM459.859 221.5H459.359V222.5H459.859V221.5ZM464.891 222.5H465.391V221.5H464.891V222.5ZM469.922 221.5H469.422V222.5H469.922V221.5ZM474.953 222.5H475.453V221.5H474.953V222.5ZM479.984 221.5H479.484V222.5H479.984V221.5ZM485.016 222.5H485.516V221.5H485.016V222.5ZM490.047 221.5H489.547V222.5H490.047V221.5ZM495.078 222.5H495.578V221.5H495.078V222.5ZM500.109 221.5H499.609V222.5H500.109V221.5ZM505.141 222.5H505.641V221.5H505.141V222.5ZM510.172 221.5H509.672V222.5H510.172V221.5ZM515.203 222.5H515.703V221.5H515.203V222.5ZM520.234 221.5H519.734V222.5H520.234V221.5ZM525.266 222.5H525.766V221.5H525.266V222.5ZM530.297 221.5H529.797V222.5H530.297V221.5ZM535.328 222.5H535.828V221.5H535.328V222.5ZM540.359 221.5H539.859V222.5H540.359V221.5ZM545.391 222.5H545.891V221.5H545.391V222.5ZM550.422 221.5H549.922V222.5H550.422V221.5ZM555.453 222.5H555.953V221.5H555.453V222.5ZM560.484 221.5H559.984V222.5H560.484V221.5ZM565.516 222.5H566.016V221.5H565.516V222.5ZM570.547 221.5H570.047V222.5H570.547V221.5ZM575.578 222.5H576.078V221.5H575.578V222.5ZM580.609 221.5H580.109V222.5H580.609V221.5ZM585.641 222.5H586.141V221.5H585.641V222.5ZM590.672 221.5H590.172V222.5H590.672V221.5ZM595.703 222.5H596.203V221.5H595.703V222.5ZM600.734 221.5H600.234V222.5H600.734V221.5ZM605.766 222.5H606.266V221.5H605.766V222.5ZM610.797 221.5H610.297V222.5H610.797V221.5ZM615.828 222.5H616.328V221.5H615.828V222.5ZM620.859 221.5H620.359V222.5H620.859V221.5ZM625.891 222.5H626.391V221.5H625.891V222.5ZM630.922 221.5H630.422V222.5H630.922V221.5ZM635.953 222.5H636.453V221.5H635.953V222.5ZM640.984 221.5H640.484V222.5H640.984V221.5ZM646.016 222.5H646.516V221.5H646.016V222.5ZM651.047 221.5H650.547V222.5H651.047V221.5ZM656.078 222.5H656.578V221.5H656.078V222.5ZM661.109 221.5H660.609V222.5H661.109V221.5ZM666.141 222.5H666.641V221.5H666.141V222.5ZM671.172 221.5H670.672V222.5H671.172V221.5ZM676.203 222.5H676.703V221.5H676.203V222.5ZM681.234 221.5H680.734V222.5H681.234V221.5ZM686.266 222.5H686.766V221.5H686.266V222.5ZM691.297 221.5H690.797V222.5H691.297V221.5ZM696.328 222.5H696.828V221.5H696.328V222.5ZM701.359 221.5H700.859V222.5H701.359V221.5ZM706.391 222.5H706.891V221.5H706.391V222.5ZM711.422 221.5H710.922V222.5H711.422V221.5ZM716.453 222.5H716.953V221.5H716.453V222.5ZM721.484 221.5H720.984V222.5H721.484V221.5ZM724.5 219.5V219H723.5V219.5H724.5ZM723.5 214.5V215H724.5V214.5H723.5ZM724.5 209.5V209H723.5V209.5H724.5ZM723.5 204.5V205H724.5V204.5H723.5ZM724.5 199.5V199H723.5V199.5H724.5ZM723.5 194.5V195H724.5V194.5H723.5ZM724.5 189.5V189H723.5V189.5H724.5ZM723.5 184.5V185H724.5V184.5H723.5ZM724.5 179.5V179H723.5V179.5H724.5ZM723.5 174.5V175H724.5V174.5H723.5ZM724.5 169.5V169H723.5V169.5H724.5ZM723.5 164.5V165H724.5V164.5H723.5ZM724.5 159.5V159H723.5V159.5H724.5ZM723.5 154.5V155H724.5V154.5H723.5ZM724.5 149.5V149H723.5V149.5H724.5ZM723.5 144.5V145H724.5V144.5H723.5ZM724.5 139.5V139H723.5V139.5H724.5ZM723.5 134.5V135H724.5V134.5H723.5ZM724.5 129.5V129H723.5V129.5H724.5ZM723.5 124.5V125H724.5V124.5H723.5ZM724.5 119.5V119H723.5V119.5H724.5ZM723.5 114.5V115H724.5V114.5H723.5ZM724.5 109.5V109H723.5V109.5H724.5ZM723.5 104.5V105H724.5V104.5H723.5ZM724.5 99.5V99H723.5V99.5H724.5ZM723.5 94.5V95H724.5V94.5H723.5ZM724.5 89.5V89H723.5V89.5H724.5ZM723.5 84.5V85H724.5V84.5H723.5ZM724.5 79.5V79H723.5V79.5H724.5ZM723.5 74.5V75H724.5V74.5H723.5ZM724.5 69.5V69H723.5V69.5H724.5ZM723.5 64.5V65H724.5V64.5H723.5ZM724.5 59.5V59H723.5V59.5H724.5ZM723.5 54.5V55H724.5V54.5H723.5ZM724.5 49.5V49H723.5V49.5H724.5ZM723.5 44.5V45H724.5V44.5H723.5ZM724.5 39.5V39H723.5V39.5H724.5ZM723.5 34.5V35H724.5V34.5H723.5ZM721.484 31.5H720.984V32.5H721.484V31.5ZM716.453 32.5H716.953V31.5H716.453V32.5ZM711.422 31.5H710.922V32.5H711.422V31.5ZM706.391 32.5H706.891V31.5H706.391V32.5ZM701.359 31.5H700.859V32.5H701.359V31.5ZM696.328 32.5H696.828V31.5H696.328V32.5ZM691.297 31.5H690.797V32.5H691.297V31.5ZM686.266 32.5H686.766V31.5H686.266V32.5ZM681.234 31.5H680.734V32.5H681.234V31.5ZM676.203 32.5H676.703V31.5H676.203V32.5ZM671.172 31.5H670.672V32.5H671.172V31.5ZM666.141 32.5H666.641V31.5H666.141V32.5ZM661.109 31.5H660.609V32.5H661.109V31.5ZM656.078 32.5H656.578V31.5H656.078V32.5ZM651.047 31.5H650.547V32.5H651.047V31.5ZM646.016 32.5H646.516V31.5H646.016V32.5ZM640.984 31.5H640.484V32.5H640.984V31.5ZM635.953 32.5H636.453V31.5H635.953V32.5ZM630.922 31.5H630.422V32.5H630.922V31.5ZM625.891 32.5H626.391V31.5H625.891V32.5ZM620.859 31.5H620.359V32.5H620.859V31.5ZM615.828 32.5H616.328V31.5H615.828V32.5ZM610.797 31.5H610.297V32.5H610.797V31.5ZM605.766 32.5H606.266V31.5H605.766V32.5ZM600.734 31.5H600.234V32.5H600.734V31.5ZM595.703 32.5H596.203V31.5H595.703V32.5ZM590.672 31.5H590.172V32.5H590.672V31.5ZM585.641 32.5H586.141V31.5H585.641V32.5ZM580.609 31.5H580.109V32.5H580.609V31.5ZM575.578 32.5H576.078V31.5H575.578V32.5ZM570.547 31.5H570.047V32.5H570.547V31.5ZM565.516 32.5H566.016V31.5H565.516V32.5ZM560.484 31.5H559.984V32.5H560.484V31.5ZM555.453 32.5H555.953V31.5H555.453V32.5ZM550.422 31.5H549.922V32.5H550.422V31.5ZM545.391 32.5H545.891V31.5H545.391V32.5ZM540.359 31.5H539.859V32.5H540.359V31.5ZM535.328 32.5H535.828V31.5H535.328V32.5ZM530.297 31.5H529.797V32.5H530.297V31.5ZM525.266 32.5H525.766V31.5H525.266V32.5ZM520.234 31.5H519.734V32.5H520.234V31.5ZM515.203 32.5H515.703V31.5H515.203V32.5ZM510.172 31.5H509.672V32.5H510.172V31.5ZM505.141 32.5H505.641V31.5H505.141V32.5ZM500.109 31.5H499.609V32.5H500.109V31.5ZM495.078 32.5H495.578V31.5H495.078V32.5ZM490.047 31.5H489.547V32.5H490.047V31.5ZM485.016 32.5H485.516V31.5H485.016V32.5ZM479.984 31.5H479.484V32.5H479.984V31.5ZM474.953 32.5H475.453V31.5H474.953V32.5ZM469.922 31.5H469.422V32.5H469.922V31.5ZM464.891 32.5H465.391V31.5H464.891V32.5ZM459.859 31.5H459.359V32.5H459.859V31.5ZM454.828 32.5H455.328V31.5H454.828V32.5ZM449.797 31.5H449.297V32.5H449.797V31.5ZM444.766 32.5H445.266V31.5H444.766V32.5ZM439.734 31.5H439.234V32.5H439.734V31.5ZM434.703 32.5H435.203V31.5H434.703V32.5ZM429.672 31.5H429.172V32.5H429.672V31.5ZM424.641 32.5H425.141V31.5H424.641V32.5ZM419.609 31.5H419.109V32.5H419.609V31.5ZM414.578 32.5H415.078V31.5H414.578V32.5ZM409.547 31.5H409.047V32.5H409.547V31.5ZM404.516 32.5H405.016V31.5H404.516V32.5ZM402 222.5H404.516V221.5H402V222.5ZM409.547 222.5H414.578V221.5H409.547V222.5ZM419.609 222.5H424.641V221.5H419.609V222.5ZM429.672 222.5H434.703V221.5H429.672V222.5ZM439.734 222.5H444.766V221.5H439.734V222.5ZM449.797 222.5H454.828V221.5H449.797V222.5ZM459.859 222.5H464.891V221.5H459.859V222.5ZM469.922 222.5H474.953V221.5H469.922V222.5ZM479.984 222.5H485.016V221.5H479.984V222.5ZM490.047 222.5H495.078V221.5H490.047V222.5ZM500.109 222.5H505.141V221.5H500.109V222.5ZM510.172 222.5H515.203V221.5H510.172V222.5ZM520.234 222.5H525.266V221.5H520.234V222.5ZM530.297 222.5H535.328V221.5H530.297V222.5ZM540.359 222.5H545.391V221.5H540.359V222.5ZM550.422 222.5H555.453V221.5H550.422V222.5ZM560.484 222.5H565.516V221.5H560.484V222.5ZM570.547 222.5H575.578V221.5H570.547V222.5ZM580.609 222.5H585.641V221.5H580.609V222.5ZM590.672 222.5H595.703V221.5H590.672V222.5ZM600.734 222.5H605.766V221.5H600.734V222.5ZM610.797 222.5H615.828V221.5H610.797V222.5ZM620.859 222.5H625.891V221.5H620.859V222.5ZM630.922 222.5H635.953V221.5H630.922V222.5ZM640.984 222.5H646.016V221.5H640.984V222.5ZM651.047 222.5H656.078V221.5H651.047V222.5ZM661.109 222.5H666.141V221.5H661.109V222.5ZM671.172 222.5H676.203V221.5H671.172V222.5ZM681.234 222.5H686.266V221.5H681.234V222.5ZM691.297 222.5H696.328V221.5H691.297V222.5ZM701.359 222.5H706.391V221.5H701.359V222.5ZM711.422 222.5H716.453V221.5H711.422V222.5ZM721.484 222.5H724V221.5H721.484V222.5ZM724.5 222V219.5H723.5V222H724.5ZM724.5 214.5V209.5H723.5V214.5H724.5ZM724.5 204.5V199.5H723.5V204.5H724.5ZM724.5 194.5V189.5H723.5V194.5H724.5ZM724.5 184.5V179.5H723.5V184.5H724.5ZM724.5 174.5V169.5H723.5V174.5H724.5ZM724.5 164.5V159.5H723.5V164.5H724.5ZM724.5 154.5V149.5H723.5V154.5H724.5ZM724.5 144.5V139.5H723.5V144.5H724.5ZM724.5 134.5V129.5H723.5V134.5H724.5ZM724.5 124.5V119.5H723.5V124.5H724.5ZM724.5 114.5V109.5H723.5V114.5H724.5ZM724.5 104.5V99.5H723.5V104.5H724.5ZM724.5 94.5V89.5H723.5V94.5H724.5ZM724.5 84.5V79.5H723.5V84.5H724.5ZM724.5 74.5V69.5H723.5V74.5H724.5ZM724.5 64.5V59.5H723.5V64.5H724.5ZM724.5 54.5V49.5H723.5V54.5H724.5ZM724.5 44.5V39.5H723.5V44.5H724.5ZM724.5 34.5V32H723.5V34.5H724.5ZM724 31.5H721.484V32.5H724V31.5ZM716.453 31.5H711.422V32.5H716.453V31.5ZM706.391 31.5H701.359V32.5H706.391V31.5ZM696.328 31.5H691.297V32.5H696.328V31.5ZM686.266 31.5H681.234V32.5H686.266V31.5ZM676.203 31.5H671.172V32.5H676.203V31.5ZM666.141 31.5H661.109V32.5H666.141V31.5ZM656.078 31.5H651.047V32.5H656.078V31.5ZM646.016 31.5H640.984V32.5H646.016V31.5ZM635.953 31.5H630.922V32.5H635.953V31.5ZM625.891 31.5H620.859V32.5H625.891V31.5ZM615.828 31.5H610.797V32.5H615.828V31.5ZM605.766 31.5H600.734V32.5H605.766V31.5ZM595.703 31.5H590.672V32.5H595.703V31.5ZM585.641 31.5H580.609V32.5H585.641V31.5ZM575.578 31.5H570.547V32.5H575.578V31.5ZM565.516 31.5H560.484V32.5H565.516V31.5ZM555.453 31.5H550.422V32.5H555.453V31.5ZM545.391 31.5H540.359V32.5H545.391V31.5ZM535.328 31.5H530.297V32.5H535.328V31.5ZM525.266 31.5H520.234V32.5H525.266V31.5ZM515.203 31.5H510.172V32.5H515.203V31.5ZM505.141 31.5H500.109V32.5H505.141V31.5ZM495.078 31.5H490.047V32.5H495.078V31.5ZM485.016 31.5H479.984V32.5H485.016V31.5ZM474.953 31.5H469.922V32.5H474.953V31.5ZM464.891 31.5H459.859V32.5H464.891V31.5ZM454.828 31.5H449.797V32.5H454.828V31.5ZM444.766 31.5H439.734V32.5H444.766V31.5ZM434.703 31.5H429.672V32.5H434.703V31.5ZM424.641 31.5H419.609V32.5H424.641V31.5ZM414.578 31.5H409.547V32.5H414.578V31.5ZM404.516 31.5H402V32.5H404.516V31.5ZM402 31H401V33H402V31ZM724 32H725C725 31.4477 724.552 31 724 31V32ZM724 222V223C724.552 223 725 222.552 725 222H724ZM402 221H401V223H402V221ZM404.516 223H405.516V221H404.516V223ZM409.547 221H408.547V223H409.547V221ZM414.578 223H415.578V221H414.578V223ZM419.609 221H418.609V223H419.609V221ZM424.641 223H425.641V221H424.641V223ZM429.672 221H428.672V223H429.672V221ZM434.703 223H435.703V221H434.703V223ZM439.734 221H438.734V223H439.734V221ZM444.766 223H445.766V221H444.766V223ZM449.797 221H448.797V223H449.797V221ZM454.828 223H455.828V221H454.828V223ZM459.859 221H458.859V223H459.859V221ZM464.891 223H465.891V221H464.891V223ZM469.922 221H468.922V223H469.922V221ZM474.953 223H475.953V221H474.953V223ZM479.984 221H478.984V223H479.984V221ZM485.016 223H486.016V221H485.016V223ZM490.047 221H489.047V223H490.047V221ZM495.078 223H496.078V221H495.078V223ZM500.109 221H499.109V223H500.109V221ZM505.141 223H506.141V221H505.141V223ZM510.172 221H509.172V223H510.172V221ZM515.203 223H516.203V221H515.203V223ZM520.234 221H519.234V223H520.234V221ZM525.266 223H526.266V221H525.266V223ZM530.297 221H529.297V223H530.297V221ZM535.328 223H536.328V221H535.328V223ZM540.359 221H539.359V223H540.359V221ZM545.391 223H546.391V221H545.391V223ZM550.422 221H549.422V223H550.422V221ZM555.453 223H556.453V221H555.453V223ZM560.484 221H559.484V223H560.484V221ZM565.516 223H566.516V221H565.516V223ZM570.547 221H569.547V223H570.547V221ZM575.578 223H576.578V221H575.578V223ZM580.609 221H579.609V223H580.609V221ZM585.641 223H586.641V221H585.641V223ZM590.672 221H589.672V223H590.672V221ZM595.703 223H596.703V221H595.703V223ZM600.734 221H599.734V223H600.734V221ZM605.766 223H606.766V221H605.766V223ZM610.797 221H609.797V223H610.797V221ZM615.828 223H616.828V221H615.828V223ZM620.859 221H619.859V223H620.859V221ZM625.891 223H626.891V221H625.891V223ZM630.922 221H629.922V223H630.922V221ZM635.953 223H636.953V221H635.953V223ZM640.984 221H639.984V223H640.984V221ZM646.016 223H647.016V221H646.016V223ZM651.047 221H650.047V223H651.047V221ZM656.078 223H657.078V221H656.078V223ZM661.109 221H660.109V223H661.109V221ZM666.141 223H667.141V221H666.141V223ZM671.172 221H670.172V223H671.172V221ZM676.203 223H677.203V221H676.203V223ZM681.234 221H680.234V223H681.234V221ZM686.266 223H687.266V221H686.266V223ZM691.297 221H690.297V223H691.297V221ZM696.328 223H697.328V221H696.328V223ZM701.359 221H700.359V223H701.359V221ZM706.391 223H707.391V221H706.391V223ZM711.422 221H710.422V223H711.422V221ZM716.453 223H717.453V221H716.453V223ZM721.484 221H720.484V223H721.484V221ZM725 219.5V218.5H723V219.5H725ZM723 214.5V215.5H725V214.5H723ZM725 209.5V208.5H723V209.5H725ZM723 204.5V205.5H725V204.5H723ZM725 199.5V198.5H723V199.5H725ZM723 194.5V195.5H725V194.5H723ZM725 189.5V188.5H723V189.5H725ZM723 184.5V185.5H725V184.5H723ZM725 179.5V178.5H723V179.5H725ZM723 174.5V175.5H725V174.5H723ZM725 169.5V168.5H723V169.5H725ZM723 164.5V165.5H725V164.5H723ZM725 159.5V158.5H723V159.5H725ZM723 154.5V155.5H725V154.5H723ZM725 149.5V148.5H723V149.5H725ZM723 144.5V145.5H725V144.5H723ZM725 139.5V138.5H723V139.5H725ZM723 134.5V135.5H725V134.5H723ZM725 129.5V128.5H723V129.5H725ZM723 124.5V125.5H725V124.5H723ZM725 119.5V118.5H723V119.5H725ZM723 114.5V115.5H725V114.5H723ZM725 109.5V108.5H723V109.5H725ZM723 104.5V105.5H725V104.5H723ZM725 99.5V98.5H723V99.5H725ZM723 94.5V95.5H725V94.5H723ZM725 89.5V88.5H723V89.5H725ZM723 84.5V85.5H725V84.5H723ZM725 79.5V78.5H723V79.5H725ZM723 74.5V75.5H725V74.5H723ZM725 69.5V68.5H723V69.5H725ZM723 64.5V65.5H725V64.5H723ZM725 59.5V58.5H723V59.5H725ZM723 54.5V55.5H725V54.5H723ZM725 49.5V48.5H723V49.5H725ZM723 44.5V45.5H725V44.5H723ZM725 39.5V38.5H723V39.5H725ZM723 34.5V35.5H725V34.5H723ZM721.484 31H720.484V33H721.484V31ZM716.453 33H717.453V31H716.453V33ZM711.422 31H710.422V33H711.422V31ZM706.391 33H707.391V31H706.391V33ZM701.359 31H700.359V33H701.359V31ZM696.328 33H697.328V31H696.328V33ZM691.297 31H690.297V33H691.297V31ZM686.266 33H687.266V31H686.266V33ZM681.234 31H680.234V33H681.234V31ZM676.203 33H677.203V31H676.203V33ZM671.172 31H670.172V33H671.172V31ZM666.141 33H667.141V31H666.141V33ZM661.109 31H660.109V33H661.109V31ZM656.078 33H657.078V31H656.078V33ZM651.047 31H650.047V33H651.047V31ZM646.016 33H647.016V31H646.016V33ZM640.984 31H639.984V33H640.984V31ZM635.953 33H636.953V31H635.953V33ZM630.922 31H629.922V33H630.922V31ZM625.891 33H626.891V31H625.891V33ZM620.859 31H619.859V33H620.859V31ZM615.828 33H616.828V31H615.828V33ZM610.797 31H609.797V33H610.797V31ZM605.766 33H606.766V31H605.766V33ZM600.734 31H599.734V33H600.734V31ZM595.703 33H596.703V31H595.703V33ZM590.672 31H589.672V33H590.672V31ZM585.641 33H586.641V31H585.641V33ZM580.609 31H579.609V33H580.609V31ZM575.578 33H576.578V31H575.578V33ZM570.547 31H569.547V33H570.547V31ZM565.516 33H566.516V31H565.516V33ZM560.484 31H559.484V33H560.484V31ZM555.453 33H556.453V31H555.453V33ZM550.422 31H549.422V33H550.422V31ZM545.391 33H546.391V31H545.391V33ZM540.359 31H539.359V33H540.359V31ZM535.328 33H536.328V31H535.328V33ZM530.297 31H529.297V33H530.297V31ZM525.266 33H526.266V31H525.266V33ZM520.234 31H519.234V33H520.234V31ZM515.203 33H516.203V31H515.203V33ZM510.172 31H509.172V33H510.172V31ZM505.141 33H506.141V31H505.141V33ZM500.109 31H499.109V33H500.109V31ZM495.078 33H496.078V31H495.078V33ZM490.047 31H489.047V33H490.047V31ZM485.016 33H486.016V31H485.016V33ZM479.984 31H478.984V33H479.984V31ZM474.953 33H475.953V31H474.953V33ZM469.922 31H468.922V33H469.922V31ZM464.891 33H465.891V31H464.891V33ZM459.859 31H458.859V33H459.859V31ZM454.828 33H455.828V31H454.828V33ZM449.797 31H448.797V33H449.797V31ZM444.766 33H445.766V31H444.766V33ZM439.734 31H438.734V33H439.734V31ZM434.703 33H435.703V31H434.703V33ZM429.672 31H428.672V33H429.672V31ZM424.641 33H425.641V31H424.641V33ZM419.609 31H418.609V33H419.609V31ZM414.578 33H415.578V31H414.578V33ZM409.547 31H408.547V33H409.547V31ZM404.516 33H405.516V31H404.516V33ZM402 223H404.516V221H402V223ZM409.547 223H414.578V221H409.547V223ZM419.609 223H424.641V221H419.609V223ZM429.672 223H434.703V221H429.672V223ZM439.734 223H444.766V221H439.734V223ZM449.797 223H454.828V221H449.797V223ZM459.859 223H464.891V221H459.859V223ZM469.922 223H474.953V221H469.922V223ZM479.984 223H485.016V221H479.984V223ZM490.047 223H495.078V221H490.047V223ZM500.109 223H505.141V221H500.109V223ZM510.172 223H515.203V221H510.172V223ZM520.234 223H525.266V221H520.234V223ZM530.297 223H535.328V221H530.297V223ZM540.359 223H545.391V221H540.359V223ZM550.422 223H555.453V221H550.422V223ZM560.484 223H565.516V221H560.484V223ZM570.547 223H575.578V221H570.547V223ZM580.609 223H585.641V221H580.609V223ZM590.672 223H595.703V221H590.672V223ZM600.734 223H605.766V221H600.734V223ZM610.797 223H615.828V221H610.797V223ZM620.859 223H625.891V221H620.859V223ZM630.922 223H635.953V221H630.922V223ZM640.984 223H646.016V221H640.984V223ZM651.047 223H656.078V221H651.047V223ZM661.109 223H666.141V221H661.109V223ZM671.172 223H676.203V221H671.172V223ZM681.234 223H686.266V221H681.234V223ZM691.297 223H696.328V221H691.297V223ZM701.359 223H706.391V221H701.359V223ZM711.422 223H716.453V221H711.422V223ZM721.484 223H724V221H721.484V223ZM725 222V219.5H723V222H725ZM725 214.5V209.5H723V214.5H725ZM725 204.5V199.5H723V204.5H725ZM725 194.5V189.5H723V194.5H725ZM725 184.5V179.5H723V184.5H725ZM725 174.5V169.5H723V174.5H725ZM725 164.5V159.5H723V164.5H725ZM725 154.5V149.5H723V154.5H725ZM725 144.5V139.5H723V144.5H725ZM725 134.5V129.5H723V134.5H725ZM725 124.5V119.5H723V124.5H725ZM725 114.5V109.5H723V114.5H725ZM725 104.5V99.5H723V104.5H725ZM725 94.5V89.5H723V94.5H725ZM725 84.5V79.5H723V84.5H725ZM725 74.5V69.5H723V74.5H725ZM725 64.5V59.5H723V64.5H725ZM725 54.5V49.5H723V54.5H725ZM725 44.5V39.5H723V44.5H725ZM725 34.5V32H723V34.5H725ZM724 31H721.484V33H724V31ZM716.453 31H711.422V33H716.453V31ZM706.391 31H701.359V33H706.391V31ZM696.328 31H691.297V33H696.328V31ZM686.266 31H681.234V33H686.266V31ZM676.203 31H671.172V33H676.203V31ZM666.141 31H661.109V33H666.141V31ZM656.078 31H651.047V33H656.078V31ZM646.016 31H640.984V33H646.016V31ZM635.953 31H630.922V33H635.953V31ZM625.891 31H620.859V33H625.891V31ZM615.828 31H610.797V33H615.828V31ZM605.766 31H600.734V33H605.766V31ZM595.703 31H590.672V33H595.703V31ZM585.641 31H580.609V33H585.641V31ZM575.578 31H570.547V33H575.578V31ZM565.516 31H560.484V33H565.516V31ZM555.453 31H550.422V33H555.453V31ZM545.391 31H540.359V33H545.391V31ZM535.328 31H530.297V33H535.328V31ZM525.266 31H520.234V33H525.266V31ZM515.203 31H510.172V33H515.203V31ZM505.141 31H500.109V33H505.141V31ZM495.078 31H490.047V33H495.078V31ZM485.016 31H479.984V33H485.016V31ZM474.953 31H469.922V33H474.953V31ZM464.891 31H459.859V33H464.891V31ZM454.828 31H449.797V33H454.828V31ZM444.766 31H439.734V33H444.766V31ZM434.703 31H429.672V33H434.703V31ZM424.641 31H419.609V33H424.641V31ZM414.578 31H409.547V33H414.578V31ZM404.516 31H402V33H404.516V31Z" fill="black" mask="url(#path-2-inside-1_121_2)"/>
<path d="M402 31.5H401.5V32.5H402V31.5ZM724 32H724.5C724.5 31.7239 724.276 31.5 724 31.5V32ZM724 222V222.5C724.276 222.5 724.5 222.276 724.5 222H724ZM402 221.5H401.5V222.5H402V221.5ZM404.516 222.5H405.016V221.5H404.516V222.5ZM409.547 221.5H409.047V222.5H409.547V221.5ZM414.578 222.5H415.078V221.5H414.578V222.5ZM419.609 221.5H419.109V222.5H419.609V221.5ZM424.641 222.5H425.141V221.5H424.641V222.5ZM429.672 221.5H429.172V222.5H429.672V221.5ZM434.703 222.5H435.203V221.5H434.703V222.5ZM439.734 221.5H439.234V222.5H439.734V221.5ZM444.766 222.5H445.266V221.5H444.766V222.5ZM449.797 221.5H449.297V222.5H449.797V221.5ZM454.828 222.5H455.328V221.5H454.828V222.5ZM459.859 221.5H459.359V222.5H459.859V221.5ZM464.891 222.5H465.391V221.5H464.891V222.5ZM469.922 221.5H469.422V222.5H469.922V221.5ZM474.953 222.5H475.453V221.5H474.953V222.5ZM479.984 221.5H479.484V222.5H479.984V221.5ZM485.016 222.5H485.516V221.5H485.016V222.5ZM490.047 221.5H489.547V222.5H490.047V221.5ZM495.078 222.5H495.578V221.5H495.078V222.5ZM500.109 221.5H499.609V222.5H500.109V221.5ZM505.141 222.5H505.641V221.5H505.141V222.5ZM510.172 221.5H509.672V222.5H510.172V221.5ZM515.203 222.5H515.703V221.5H515.203V222.5ZM520.234 221.5H519.734V222.5H520.234V221.5ZM525.266 222.5H525.766V221.5H525.266V222.5ZM530.297 221.5H529.797V222.5H530.297V221.5ZM535.328 222.5H535.828V221.5H535.328V222.5ZM540.359 221.5H539.859V222.5H540.359V221.5ZM545.391 222.5H545.891V221.5H545.391V222.5ZM550.422 221.5H549.922V222.5H550.422V221.5ZM555.453 222.5H555.953V221.5H555.453V222.5ZM560.484 221.5H559.984V222.5H560.484V221.5ZM565.516 222.5H566.016V221.5H565.516V222.5ZM570.547 221.5H570.047V222.5H570.547V221.5ZM575.578 222.5H576.078V221.5H575.578V222.5ZM580.609 221.5H580.109V222.5H580.609V221.5ZM585.641 222.5H586.141V221.5H585.641V222.5ZM590.672 221.5H590.172V222.5H590.672V221.5ZM595.703 222.5H596.203V221.5H595.703V222.5ZM600.734 221.5H600.234V222.5H600.734V221.5ZM605.766 222.5H606.266V221.5H605.766V222.5ZM610.797 221.5H610.297V222.5H610.797V221.5ZM615.828 222.5H616.328V221.5H615.828V222.5ZM620.859 221.5H620.359V222.5H620.859V221.5ZM625.891 222.5H626.391V221.5H625.891V222.5ZM630.922 221.5H630.422V222.5H630.922V221.5ZM635.953 222.5H636.453V221.5H635.953V222.5ZM640.984 221.5H640.484V222.5H640.984V221.5ZM646.016 222.5H646.516V221.5H646.016V222.5ZM651.047 221.5H650.547V222.5H651.047V221.5ZM656.078 222.5H656.578V221.5H656.078V222.5ZM661.109 221.5H660.609V222.5H661.109V221.5ZM666.141 222.5H666.641V221.5H666.141V222.5ZM671.172 221.5H670.672V222.5H671.172V221.5ZM676.203 222.5H676.703V221.5H676.203V222.5ZM681.234 221.5H680.734V222.5H681.234V221.5ZM686.266 222.5H686.766V221.5H686.266V222.5ZM691.297 221.5H690.797V222.5H691.297V221.5ZM696.328 222.5H696.828V221.5H696.328V222.5ZM701.359 221.5H700.859V222.5H701.359V221.5ZM706.391 222.5H706.891V221.5H706.391V222.5ZM711.422 221.5H710.922V222.5H711.422V221.5ZM716.453 222.5H716.953V221.5H716.453V222.5ZM721.484 221.5H720.984V222.5H721.484V221.5ZM724.5 219.5V219H723.5V219.5H724.5ZM723.5 214.5V215H724.5V214.5H723.5ZM724.5 209.5V209H723.5V209.5H724.5ZM723.5 204.5V205H724.5V204.5H723.5ZM724.5 199.5V199H723.5V199.5H724.5ZM723.5 194.5V195H724.5V194.5H723.5ZM724.5 189.5V189H723.5V189.5H724.5ZM723.5 184.5V185H724.5V184.5H723.5ZM724.5 179.5V179H723.5V179.5H724.5ZM723.5 174.5V175H724.5V174.5H723.5ZM724.5 169.5V169H723.5V169.5H724.5ZM723.5 164.5V165H724.5V164.5H723.5ZM724.5 159.5V159H723.5V159.5H724.5ZM723.5 154.5V155H724.5V154.5H723.5ZM724.5 149.5V149H723.5V149.5H724.5ZM723.5 144.5V145H724.5V144.5H723.5ZM724.5 139.5V139H723.5V139.5H724.5ZM723.5 134.5V135H724.5V134.5H723.5ZM724.5 129.5V129H723.5V129.5H724.5ZM723.5 124.5V125H724.5V124.5H723.5ZM724.5 119.5V119H723.5V119.5H724.5ZM723.5 114.5V115H724.5V114.5H723.5ZM724.5 109.5V109H723.5V109.5H724.5ZM723.5 104.5V105H724.5V104.5H723.5ZM724.5 99.5V99H723.5V99.5H724.5ZM723.5 94.5V95H724.5V94.5H723.5ZM724.5 89.5V89H723.5V89.5H724.5ZM723.5 84.5V85H724.5V84.5H723.5ZM724.5 79.5V79H723.5V79.5H724.5ZM723.5 74.5V75H724.5V74.5H723.5ZM724.5 69.5V69H723.5V69.5H724.5ZM723.5 64.5V65H724.5V64.5H723.5ZM724.5 59.5V59H723.5V59.5H724.5ZM723.5 54.5V55H724.5V54.5H723.5ZM724.5 49.5V49H723.5V49.5H724.5ZM723.5 44.5V45H724.5V44.5H723.5ZM724.5 39.5V39H723.5V39.5H724.5ZM723.5 34.5V35H724.5V34.5H723.5ZM721.484 31.5H720.984V32.5H721.484V31.5ZM716.453 32.5H716.953V31.5H716.453V32.5ZM711.422 31.5H710.922V32.5H711.422V31.5ZM706.391 32.5H706.891V31.5H706.391V32.5ZM701.359 31.5H700.859V32.5H701.359V31.5ZM696.328 32.5H696.828V31.5H696.328V32.5ZM691.297 31.5H690.797V32.5H691.297V31.5ZM686.266 32.5H686.766V31.5H686.266V32.5ZM681.234 31.5H680.734V32.5H681.234V31.5ZM676.203 32.5H676.703V31.5H676.203V32.5ZM671.172 31.5H670.672V32.5H671.172V31.5ZM666.141 32.5H666.641V31.5H666.141V32.5ZM661.109 31.5H660.609V32.5H661.109V31.5ZM656.078 32.5H656.578V31.5H656.078V32.5ZM651.047 31.5H650.547V32.5H651.047V31.5ZM646.016 32.5H646.516V31.5H646.016V32.5ZM640.984 31.5H640.484V32.5H640.984V31.5ZM635.953 32.5H636.453V31.5H635.953V32.5ZM630.922 31.5H630.422V32.5H630.922V31.5ZM625.891 32.5H626.391V31.5H625.891V32.5ZM620.859 31.5H620.359V32.5H620.859V31.5ZM615.828 32.5H616.328V31.5H615.828V32.5ZM610.797 31.5H610.297V32.5H610.797V31.5ZM605.766 32.5H606.266V31.5H605.766V32.5ZM600.734 31.5H600.234V32.5H600.734V31.5ZM595.703 32.5H596.203V31.5H595.703V32.5ZM590.672 31.5H590.172V32.5H590.672V31.5ZM585.641 32.5H586.141V31.5H585.641V32.5ZM580.609 31.5H580.109V32.5H580.609V31.5ZM575.578 32.5H576.078V31.5H575.578V32.5ZM570.547 31.5H570.047V32.5H570.547V31.5ZM565.516 32.5H566.016V31.5H565.516V32.5ZM560.484 31.5H559.984V32.5H560.484V31.5ZM555.453 32.5H555.953V31.5H555.453V32.5ZM550.422 31.5H549.922V32.5H550.422V31.5ZM545.391 32.5H545.891V31.5H545.391V32.5ZM540.359 31.5H539.859V32.5H540.359V31.5ZM535.328 32.5H535.828V31.5H535.328V32.5ZM530.297 31.5H529.797V32.5H530.297V31.5ZM525.266 32.5H525.766V31.5H525.266V32.5ZM520.234 31.5H519.734V32.5H520.234V31.5ZM515.203 32.5H515.703V31.5H515.203V32.5ZM510.172 31.5H509.672V32.5H510.172V31.5ZM505.141 32.5H505.641V31.5H505.141V32.5ZM500.109 31.5H499.609V32.5H500.109V31.5ZM495.078 32.5H495.578V31.5H495.078V32.5ZM490.047 31.5H489.547V32.5H490.047V31.5ZM485.016 32.5H485.516V31.5H485.016V32.5ZM479.984 31.5H479.484V32.5H479.984V31.5ZM474.953 32.5H475.453V31.5H474.953V32.5ZM469.922 31.5H469.422V32.5H469.922V31.5ZM464.891 32.5H465.391V31.5H464.891V32.5ZM459.859 31.5H459.359V32.5H459.859V31.5ZM454.828 32.5H455.328V31.5H454.828V32.5ZM449.797 31.5H449.297V32.5H449.797V31.5ZM444.766 32.5H445.266V31.5H444.766V32.5ZM439.734 31.5H439.234V32.5H439.734V31.5ZM434.703 32.5H435.203V31.5H434.703V32.5ZM429.672 31.5H429.172V32.5H429.672V31.5ZM424.641 32.5H425.141V31.5H424.641V32.5ZM419.609 31.5H419.109V32.5H419.609V31.5ZM414.578 32.5H415.078V31.5H414.578V32.5ZM409.547 31.5H409.047V32.5H409.547V31.5ZM404.516 32.5H405.016V31.5H404.516V32.5ZM402 222.5H404.516V221.5H402V222.5ZM409.547 222.5H414.578V221.5H409.547V222.5ZM419.609 222.5H424.641V221.5H419.609V222.5ZM429.672 222.5H434.703V221.5H429.672V222.5ZM439.734 222.5H444.766V221.5H439.734V222.5ZM449.797 222.5H454.828V221.5H449.797V222.5ZM459.859 222.5H464.891V221.5H459.859V222.5ZM469.922 222.5H474.953V221.5H469.922V222.5ZM479.984 222.5H485.016V221.5H479.984V222.5ZM490.047 222.5H495.078V221.5H490.047V222.5ZM500.109 222.5H505.141V221.5H500.109V222.5ZM510.172 222.5H515.203V221.5H510.172V222.5ZM520.234 222.5H525.266V221.5H520.234V222.5ZM530.297 222.5H535.328V221.5H530.297V222.5ZM540.359 222.5H545.391V221.5H540.359V222.5ZM550.422 222.5H555.453V221.5H550.422V222.5ZM560.484 222.5H565.516V221.5H560.484V222.5ZM570.547 222.5H575.578V221.5H570.547V222.5ZM580.609 222.5H585.641V221.5H580.609V222.5ZM590.672 222.5H595.703V221.5H590.672V222.5ZM600.734 222.5H605.766V221.5H600.734V222.5ZM610.797 222.5H615.828V221.5H610.797V222.5ZM620.859 222.5H625.891V221.5H620.859V222.5ZM630.922 222.5H635.953V221.5H630.922V222.5ZM640.984 222.5H646.016V221.5H640.984V222.5ZM651.047 222.5H656.078V221.5H651.047V222.5ZM661.109 222.5H666.141V221.5H661.109V222.5ZM671.172 222.5H676.203V221.5H671.172V222.5ZM681.234 222.5H686.266V221.5H681.234V222.5ZM691.297 222.5H696.328V221.5H691.297V222.5ZM701.359 222.5H706.391V221.5H701.359V222.5ZM711.422 222.5H716.453V221.5H711.422V222.5ZM721.484 222.5H724V221.5H721.484V222.5ZM724.5 222V219.5H723.5V222H724.5ZM724.5 214.5V209.5H723.5V214.5H724.5ZM724.5 204.5V199.5H723.5V204.5H724.5ZM724.5 194.5V189.5H723.5V194.5H724.5ZM724.5 184.5V179.5H723.5V184.5H724.5ZM724.5 174.5V169.5H723.5V174.5H724.5ZM724.5 164.5V159.5H723.5V164.5H724.5ZM724.5 154.5V149.5H723.5V154.5H724.5ZM724.5 144.5V139.5H723.5V144.5H724.5ZM724.5 134.5V129.5H723.5V134.5H724.5ZM724.5 124.5V119.5H723.5V124.5H724.5ZM724.5 114.5V109.5H723.5V114.5H724.5ZM724.5 104.5V99.5H723.5V104.5H724.5ZM724.5 94.5V89.5H723.5V94.5H724.5ZM724.5 84.5V79.5H723.5V84.5H724.5ZM724.5 74.5V69.5H723.5V74.5H724.5ZM724.5 64.5V59.5H723.5V64.5H724.5ZM724.5 54.5V49.5H723.5V54.5H724.5ZM724.5 44.5V39.5H723.5V44.5H724.5ZM724.5 34.5V32H723.5V34.5H724.5ZM724 31.5H721.484V32.5H724V31.5ZM716.453 31.5H711.422V32.5H716.453V31.5ZM706.391 31.5H701.359V32.5H706.391V31.5ZM696.328 31.5H691.297V32.5H696.328V31.5ZM686.266 31.5H681.234V32.5H686.266V31.5ZM676.203 31.5H671.172V32.5H676.203V31.5ZM666.141 31.5H661.109V32.5H666.141V31.5ZM656.078 31.5H651.047V32.5H656.078V31.5ZM646.016 31.5H640.984V32.5H646.016V31.5ZM635.953 31.5H630.922V32.5H635.953V31.5ZM625.891 31.5H620.859V32.5H625.891V31.5ZM615.828 31.5H610.797V32.5H615.828V31.5ZM605.766 31.5H600.734V32.5H605.766V31.5ZM595.703 31.5H590.672V32.5H595.703V31.5ZM585.641 31.5H580.609V32.5H585.641V31.5ZM575.578 31.5H570.547V32.5H575.578V31.5ZM565.516 31.5H560.484V32.5H565.516V31.5ZM555.453 31.5H550.422V32.5H555.453V31.5ZM545.391 31.5H540.359V32.5H545.391V31.5ZM535.328 31.5H530.297V32.5H535.328V31.5ZM525.266 31.5H520.234V32.5H525.266V31.5ZM515.203 31.5H510.172V32.5H515.203V31.5ZM505.141 31.5H500.109V32.5H505.141V31.5ZM495.078 31.5H490.047V32.5H495.078V31.5ZM485.016 31.5H479.984V32.5H485.016V31.5ZM474.953 31.5H469.922V32.5H474.953V31.5ZM464.891 31.5H459.859V32.5H464.891V31.5ZM454.828 31.5H449.797V32.5H454.828V31.5ZM444.766 31.5H439.734V32.5H444.766V31.5ZM434.703 31.5H429.672V32.5H434.703V31.5ZM424.641 31.5H419.609V32.5H424.641V31.5ZM414.578 31.5H409.547V32.5H414.578V31.5ZM404.516 31.5H402V32.5H404.516V31.5ZM402 31H401V33H402V31ZM724 32H725C725 31.4477 724.552 31 724 31V32ZM724 222V223C724.552 223 725 222.552 725 222H724ZM402 221H401V223H402V221ZM404.516 223H405.516V221H404.516V223ZM409.547 221H408.547V223H409.547V221ZM414.578 223H415.578V221H414.578V223ZM419.609 221H418.609V223H419.609V221ZM424.641 223H425.641V221H424.641V223ZM429.672 221H428.672V223H429.672V221ZM434.703 223H435.703V221H434.703V223ZM439.734 221H438.734V223H439.734V221ZM444.766 223H445.766V221H444.766V223ZM449.797 221H448.797V223H449.797V221ZM454.828 223H455.828V221H454.828V223ZM459.859 221H458.859V223H459.859V221ZM464.891 223H465.891V221H464.891V223ZM469.922 221H468.922V223H469.922V221ZM474.953 223H475.953V221H474.953V223ZM479.984 221H478.984V223H479.984V221ZM485.016 223H486.016V221H485.016V223ZM490.047 221H489.047V223H490.047V221ZM495.078 223H496.078V221H495.078V223ZM500.109 221H499.109V223H500.109V221ZM505.141 223H506.141V221H505.141V223ZM510.172 221H509.172V223H510.172V221ZM515.203 223H516.203V221H515.203V223ZM520.234 221H519.234V223H520.234V221ZM525.266 223H526.266V221H525.266V223ZM530.297 221H529.297V223H530.297V221ZM535.328 223H536.328V221H535.328V223ZM540.359 221H539.359V223H540.359V221ZM545.391 223H546.391V221H545.391V223ZM550.422 221H549.422V223H550.422V221ZM555.453 223H556.453V221H555.453V223ZM560.484 221H559.484V223H560.484V221ZM565.516 223H566.516V221H565.516V223ZM570.547 221H569.547V223H570.547V221ZM575.578 223H576.578V221H575.578V223ZM580.609 221H579.609V223H580.609V221ZM585.641 223H586.641V221H585.641V223ZM590.672 221H589.672V223H590.672V221ZM595.703 223H596.703V221H595.703V223ZM600.734 221H599.734V223H600.734V221ZM605.766 223H606.766V221H605.766V223ZM610.797 221H609.797V223H610.797V221ZM615.828 223H616.828V221H615.828V223ZM620.859 221H619.859V223H620.859V221ZM625.891 223H626.891V221H625.891V223ZM630.922 221H629.922V223H630.922V221ZM635.953 223H636.953V221H635.953V223ZM640.984 221H639.984V223H640.984V221ZM646.016 223H647.016V221H646.016V223ZM651.047 221H650.047V223H651.047V221ZM656.078 223H657.078V221H656.078V223ZM661.109 221H660.109V223H661.109V221ZM666.141 223H667.141V221H666.141V223ZM671.172 221H670.172V223H671.172V221ZM676.203 223H677.203V221H676.203V223ZM681.234 221H680.234V223H681.234V221ZM686.266 223H687.266V221H686.266V223ZM691.297 221H690.297V223H691.297V221ZM696.328 223H697.328V221H696.328V223ZM701.359 221H700.359V223H701.359V221ZM706.391 223H707.391V221H706.391V223ZM711.422 221H710.422V223H711.422V221ZM716.453 223H717.453V221H716.453V223ZM721.484 221H720.484V223H721.484V221ZM725 219.5V218.5H723V219.5H725ZM723 214.5V215.5H725V214.5H723ZM725 209.5V208.5H723V209.5H725ZM723 204.5V205.5H725V204.5H723ZM725 199.5V198.5H723V199.5H725ZM723 194.5V195.5H725V194.5H723ZM725 189.5V188.5H723V189.5H725ZM723 184.5V185.5H725V184.5H723ZM725 179.5V178.5H723V179.5H725ZM723 174.5V175.5H725V174.5H723ZM725 169.5V168.5H723V169.5H725ZM723 164.5V165.5H725V164.5H723ZM725 159.5V158.5H723V159.5H725ZM723 154.5V155.5H725V154.5H723ZM725 149.5V148.5H723V149.5H725ZM723 144.5V145.5H725V144.5H723ZM725 139.5V138.5H723V139.5H725ZM723 134.5V135.5H725V134.5H723ZM725 129.5V128.5H723V129.5H725ZM723 124.5V125.5H725V124.5H723ZM725 119.5V118.5H723V119.5H725ZM723 114.5V115.5H725V114.5H723ZM725 109.5V108.5H723V109.5H725ZM723 104.5V105.5H725V104.5H723ZM725 99.5V98.5H723V99.5H725ZM723 94.5V95.5H725V94.5H723ZM725 89.5V88.5H723V89.5H725ZM723 84.5V85.5H725V84.5H723ZM725 79.5V78.5H723V79.5H725ZM723 74.5V75.5H725V74.5H723ZM725 69.5V68.5H723V69.5H725ZM723 64.5V65.5H725V64.5H723ZM725 59.5V58.5H723V59.5H725ZM723 54.5V55.5H725V54.5H723ZM725 49.5V48.5H723V49.5H725ZM723 44.5V45.5H725V44.5H723ZM725 39.5V38.5H723V39.5H725ZM723 34.5V35.5H725V34.5H723ZM721.484 31H720.484V33H721.484V31ZM716.453 33H717.453V31H716.453V33ZM711.422 31H710.422V33H711.422V31ZM706.391 33H707.391V31H706.391V33ZM701.359 31H700.359V33H701.359V31ZM696.328 33H697.328V31H696.328V33ZM691.297 31H690.297V33H691.297V31ZM686.266 33H687.266V31H686.266V33ZM681.234 31H680.234V33H681.234V31ZM676.203 33H677.203V31H676.203V33ZM671.172 31H670.172V33H671.172V31ZM666.141 33H667.141V31H666.141V33ZM661.109 31H660.109V33H661.109V31ZM656.078 33H657.078V31H656.078V33ZM651.047 31H650.047V33H651.047V31ZM646.016 33H647.016V31H646.016V33ZM640.984 31H639.984V33H640.984V31ZM635.953 33H636.953V31H635.953V33ZM630.922 31H629.922V33H630.922V31ZM625.891 33H626.891V31H625.891V33ZM620.859 31H619.859V33H620.859V31ZM615.828 33H616.828V31H615.828V33ZM610.797 31H609.797V33H610.797V31ZM605.766 33H606.766V31H605.766V33ZM600.734 31H599.734V33H600.734V31ZM595.703 33H596.703V31H595.703V33ZM590.672 31H589.672V33H590.672V31ZM585.641 33H586.641V31H585.641V33ZM580.609 31H579.609V33H580.609V31ZM575.578 33H576.578V31H575.578V33ZM570.547 31H569.547V33H570.547V31ZM565.516 33H566.516V31H565.516V33ZM560.484 31H559.484V33H560.484V31ZM555.453 33H556.453V31H555.453V33ZM550.422 31H549.422V33H550.422V31ZM545.391 33H546.391V31H545.391V33ZM540.359 31H539.359V33H540.359V31ZM535.328 33H536.328V31H535.328V33ZM530.297 31H529.297V33H530.297V31ZM525.266 33H526.266V31H525.266V33ZM520.234 31H519.234V33H520.234V31ZM515.203 33H516.203V31H515.203V33ZM510.172 31H509.172V33H510.172V31ZM505.141 33H506.141V31H505.141V33ZM500.109 31H499.109V33H500.109V31ZM495.078 33H496.078V31H495.078V33ZM490.047 31H489.047V33H490.047V31ZM485.016 33H486.016V31H485.016V33ZM479.984 31H478.984V33H479.984V31ZM474.953 33H475.953V31H474.953V33ZM469.922 31H468.922V33H469.922V31ZM464.891 33H465.891V31H464.891V33ZM459.859 31H458.859V33H459.859V31ZM454.828 33H455.828V31H454.828V33ZM449.797 31H448.797V33H449.797V31ZM444.766 33H445.766V31H444.766V33ZM439.734 31H438.734V33H439.734V31ZM434.703 33H435.703V31H434.703V33ZM429.672 31H428.672V33H429.672V31ZM424.641 33H425.641V31H424.641V33ZM419.609 31H418.609V33H419.609V31ZM414.578 33H415.578V31H414.578V33ZM409.547 31H408.547V33H409.547V31ZM404.516 33H405.516V31H404.516V33ZM402 223H404.516V221H402V223ZM409.547 223H414.578V221H409.547V223ZM419.609 223H424.641V221H419.609V223ZM429.672 223H434.703V221H429.672V223ZM439.734 223H444.766V221H439.734V223ZM449.797 223H454.828V221H449.797V223ZM459.859 223H464.891V221H459.859V223ZM469.922 223H474.953V221H469.922V223ZM479.984 223H485.016V221H479.984V223ZM490.047 223H495.078V221H490.047V223ZM500.109 223H505.141V221H500.109V223ZM510.172 223H515.203V221H510.172V223ZM520.234 223H525.266V221H520.234V223ZM530.297 223H535.328V221H530.297V223ZM540.359 223H545.391V221H540.359V223ZM550.422 223H555.453V221H550.422V223ZM560.484 223H565.516V221H560.484V223ZM570.547 223H575.578V221H570.547V223ZM580.609 223H585.641V221H580.609V223ZM590.672 223H595.703V221H590.672V223ZM600.734 223H605.766V221H600.734V223ZM610.797 223H615.828V221H610.797V223ZM620.859 223H625.891V221H620.859V223ZM630.922 223H635.953V221H630.922V223ZM640.984 223H646.016V221H640.984V223ZM651.047 223H656.078V221H651.047V223ZM661.109 223H666.141V221H661.109V223ZM671.172 223H676.203V221H671.172V223ZM681.234 223H686.266V221H681.234V223ZM691.297 223H696.328V221H691.297V223ZM701.359 223H706.391V221H701.359V223ZM711.422 223H716.453V221H711.422V223ZM721.484 223H724V221H721.484V223ZM725 222V219.5H723V222H725ZM725 214.5V209.5H723V214.5H725ZM725 204.5V199.5H723V204.5H725ZM725 194.5V189.5H723V194.5H725ZM725 184.5V179.5H723V184.5H725ZM725 174.5V169.5H723V174.5H725ZM725 164.5V159.5H723V164.5H725ZM725 154.5V149.5H723V154.5H725ZM725 144.5V139.5H723V144.5H725ZM725 134.5V129.5H723V134.5H725ZM725 124.5V119.5H723V124.5H725ZM725 114.5V109.5H723V114.5H725ZM725 104.5V99.5H723V104.5H725ZM725 94.5V89.5H723V94.5H725ZM725 84.5V79.5H723V84.5H725ZM725 74.5V69.5H723V74.5H725ZM725 64.5V59.5H723V64.5H725ZM725 54.5V49.5H723V54.5H725ZM725 44.5V39.5H723V44.5H725ZM725 34.5V32H723V34.5H725ZM724 31H721.484V33H724V31ZM716.453 31H711.422V33H716.453V31ZM706.391 31H701.359V33H706.391V31ZM696.328 31H691.297V33H696.328V31ZM686.266 31H681.234V33H686.266V31ZM676.203 31H671.172V33H676.203V31ZM666.141 31H661.109V33H666.141V31ZM656.078 31H651.047V33H656.078V31ZM646.016 31H640.984V33H646.016V31ZM635.953 31H630.922V33H635.953V31ZM625.891 31H620.859V33H625.891V31ZM615.828 31H610.797V33H615.828V31ZM605.766 31H600.734V33H605.766V31ZM595.703 31H590.672V33H595.703V31ZM585.641 31H580.609V33H585.641V31ZM575.578 31H570.547V33H575.578V31ZM565.516 31H560.484V33H565.516V31ZM555.453 31H550.422V33H555.453V31ZM545.391 31H540.359V33H545.391V31ZM535.328 31H530.297V33H535.328V31ZM525.266 31H520.234V33H525.266V31ZM515.203 31H510.172V33H515.203V31ZM505.141 31H500.109V33H505.141V31ZM495.078 31H490.047V33H495.078V31ZM485.016 31H479.984V33H485.016V31ZM474.953 31H469.922V33H474.953V31ZM464.891 31H459.859V33H464.891V31ZM454.828 31H449.797V33H454.828V31ZM444.766 31H439.734V33H444.766V31ZM434.703 31H429.672V33H434.703V31ZM424.641 31H419.609V33H424.641V31ZM414.578 31H409.547V33H414.578V31ZM404.516 31H402V33H404.516V31Z" fill="#0F1019" mask="url(#path-2-inside-1_121_2)"/>
<path d="M208.493 151L190.415 101.32H200.075L212.081 134.095L224.087 101.32H232.988L244.994 134.095L256.931 101.32H266.66L248.582 151H241.406L228.503 115.81L215.669 151H208.493ZM274.713 151V101.32H320.46V110.497H283.89V121.537H313.284V130.783H283.89V141.823H320.46V151H274.713ZM328.99 151V101.32H367.078C368.826 101.32 370.413 101.757 371.839 102.631C373.311 103.505 374.484 104.678 375.358 106.15C376.232 107.576 376.669 109.163 376.669 110.911V120.64C376.669 121.238 376.623 121.813 376.531 122.365C376.439 122.917 376.278 123.446 376.048 123.952C376.83 125.01 377.451 126.114 377.911 127.264C378.417 128.414 378.67 129.564 378.67 130.714V141.409C378.67 143.157 378.233 144.767 377.359 146.239C376.485 147.665 375.312 148.815 373.84 149.689C372.368 150.563 370.758 151 369.01 151H328.99ZM338.926 141.823H368.596C368.826 141.823 369.033 141.754 369.217 141.616C369.401 141.432 369.493 141.225 369.493 140.995V131.128C369.493 130.898 369.401 130.714 369.217 130.576C369.033 130.392 368.826 130.3 368.596 130.3H338.926C338.696 130.3 338.489 130.392 338.305 130.576C338.167 130.714 338.098 130.898 338.098 131.128V140.995C338.098 141.225 338.167 141.432 338.305 141.616C338.489 141.754 338.696 141.823 338.926 141.823ZM338.926 121.123H366.664C366.894 121.123 367.078 121.054 367.216 120.916C367.354 120.732 367.423 120.525 367.423 120.295V111.325C367.423 111.095 367.354 110.911 367.216 110.773C367.078 110.589 366.894 110.497 366.664 110.497H338.926C338.696 110.497 338.489 110.589 338.305 110.773C338.167 110.911 338.098 111.095 338.098 111.325V120.295C338.098 120.525 338.167 120.732 338.305 120.916C338.489 121.054 338.696 121.123 338.926 121.123Z" fill="#F97316"/>
<path d="M387.78 135.13V126.091H416.001V135.13H387.78Z" fill="white"/>
<path d="M432.741 151C431.223 151 429.82 150.632 428.532 149.896C427.29 149.16 426.301 148.171 425.565 146.929C424.829 145.641 424.461 144.238 424.461 142.72V101.32H430.05V142.72C430.05 143.456 430.303 144.1 430.809 144.652C431.361 145.158 432.005 145.411 432.741 145.411H465.861C466.597 145.411 467.218 145.158 467.724 144.652C468.276 144.1 468.552 143.456 468.552 142.72V101.32H474.141V142.72C474.141 144.238 473.773 145.641 473.037 146.929C472.301 148.171 471.289 149.16 470.001 149.896C468.759 150.632 467.379 151 465.861 151H432.741ZM482.981 166.87V110.98H515.411C516.929 110.98 518.309 111.371 519.551 112.153C520.839 112.889 521.851 113.901 522.587 115.189C523.369 116.431 523.76 117.811 523.76 119.329V142.651C523.76 144.169 523.369 145.572 522.587 146.86C521.851 148.102 520.839 149.114 519.551 149.896C518.309 150.632 516.929 151 515.411 151H488.639V166.87H482.981ZM491.399 145.342H515.411C516.147 145.342 516.768 145.089 517.274 144.583C517.826 144.031 518.102 143.387 518.102 142.651V119.329C518.102 118.593 517.826 117.972 517.274 117.466C516.768 116.914 516.147 116.638 515.411 116.638H491.399C490.663 116.638 490.019 116.914 489.467 117.466C488.915 117.972 488.639 118.593 488.639 119.329V142.651C488.639 143.387 488.915 144.031 489.467 144.583C490.019 145.089 490.663 145.342 491.399 145.342ZM538.393 151C536.875 151 535.472 150.632 534.184 149.896C532.942 149.114 531.93 148.102 531.148 146.86C530.412 145.572 530.044 144.169 530.044 142.651V128.161H565.096V119.329C565.096 118.593 564.82 117.972 564.268 117.466C563.762 116.914 563.141 116.638 562.405 116.638H530.044V110.98H562.405C563.969 110.98 565.372 111.371 566.614 112.153C567.902 112.889 568.914 113.901 569.65 115.189C570.432 116.431 570.823 117.811 570.823 119.329V151H538.393ZM538.393 145.342H565.096V133.819H535.702V142.651C535.702 143.387 535.955 144.031 536.461 144.583C537.013 145.089 537.657 145.342 538.393 145.342ZM586.026 166.87V161.143H611.004C611.74 161.143 612.361 160.867 612.867 160.315C613.419 159.809 613.695 159.188 613.695 158.452V151H586.992C585.474 151 584.071 150.632 582.783 149.896C581.541 149.114 580.529 148.102 579.747 146.86C579.011 145.572 578.643 144.169 578.643 142.651V111.118H584.301V142.651C584.301 143.387 584.554 144.031 585.06 144.583C585.612 145.089 586.256 145.342 586.992 145.342H611.004C611.74 145.342 612.361 145.089 612.867 144.583C613.419 144.031 613.695 143.387 613.695 142.651V111.118H619.353V158.452C619.353 160.016 618.985 161.419 618.249 162.661C617.513 163.949 616.501 164.961 615.213 165.697C613.971 166.479 612.568 166.87 611.004 166.87H586.026ZM634.68 151C633.162 151 631.759 150.632 630.471 149.896C629.229 149.114 628.217 148.102 627.435 146.86C626.699 145.572 626.331 144.169 626.331 142.651V128.161H661.383V119.329C661.383 118.593 661.107 117.972 660.555 117.466C660.049 116.914 659.428 116.638 658.692 116.638H626.331V110.98H658.692C660.256 110.98 661.659 111.371 662.901 112.153C664.189 112.889 665.201 113.901 665.937 115.189C666.719 116.431 667.11 117.811 667.11 119.329V151H634.68ZM634.68 145.342H661.383V133.819H631.989V142.651C631.989 143.387 632.242 144.031 632.748 144.583C633.3 145.089 633.944 145.342 634.68 145.342Z" fill="#0F1019"/>
<path d="M138.8 152.99C138.267 152.99 138 153.257 138 153.79V160C138 160.265 138.105 160.52 138.293 160.707C138.48 160.895 138.735 161 139 161H145C145.265 161 145.52 161.105 145.707 161.293C145.895 161.48 146 161.735 146 162V168.25C146 168.75 145.75 169 145.25 169H115.12C114.367 169 113.99 168.623 113.99 167.87L114.01 162.25C114.01 161.423 114.423 161.01 115.25 161.01L121.01 161C121.276 160.997 121.53 160.89 121.718 160.701C121.905 160.512 122.01 160.256 122.01 159.99L122 153.81C122 153.283 121.737 153.02 121.21 153.02C112.737 152.98 103.94 152.983 94.82 153.03C89.55 153.06 85.97 149.69 85.98 144.37C86 129.157 86.01 113.623 86.01 97.77C86.01 91.52 89.94 88.95 95.69 88.95C119.47 88.97 142.63 88.9933 165.17 89.02C171.84 89.02 174.15 93.29 174.09 99.31C173.93 114.423 173.92 129.207 174.06 143.66C174.12 149.933 170.86 153.057 164.28 153.03C156.02 153.003 147.527 152.99 138.8 152.99ZM166 97.71C166 97.5217 165.925 97.3411 165.792 97.208C165.659 97.0748 165.478 97 165.29 97H94.71C94.5217 97 94.3411 97.0748 94.208 97.208C94.0748 97.3411 94 97.5217 94 97.71V144.29C94 144.478 94.0748 144.659 94.208 144.792C94.3411 144.925 94.5217 145 94.71 145H165.29C165.478 145 165.659 144.925 165.792 144.792C165.925 144.659 166 144.478 166 144.29V97.71Z" fill="#FFF6FC" stroke="#F97316"/>
<path d="M136.466 105.607L131.517 104.373C131.276 104.313 131.032 104.46 130.972 104.701L123.206 135.847C123.146 136.089 123.293 136.333 123.534 136.393L128.483 137.627C128.724 137.687 128.968 137.54 129.028 137.299L136.794 106.153C136.854 105.911 136.707 105.667 136.466 105.607Z" fill="#F97316" stroke="#F97316"/>
<path d="M110.31 121.27L118.55 129.49C118.59 129.529 118.622 129.576 118.643 129.627C118.665 129.679 118.676 129.734 118.676 129.79C118.676 129.846 118.665 129.901 118.643 129.953C118.622 130.004 118.59 130.051 118.55 130.09L115.14 133.52C115.101 133.56 115.054 133.592 115.003 133.613C114.951 133.635 114.896 133.646 114.84 133.646C114.784 133.646 114.729 133.635 114.677 133.613C114.626 133.592 114.579 133.56 114.54 133.52L102.32 121.27C102.28 121.231 102.248 121.184 102.227 121.133C102.205 121.081 102.194 121.026 102.194 120.97C102.194 120.914 102.205 120.859 102.227 120.807C102.248 120.756 102.28 120.709 102.32 120.67L114.51 108.47C114.549 108.43 114.596 108.398 114.647 108.377C114.699 108.355 114.754 108.344 114.81 108.344C114.866 108.344 114.921 108.355 114.973 108.377C115.024 108.398 115.071 108.43 115.11 108.47L118.53 111.89C118.57 111.929 118.602 111.976 118.623 112.027C118.645 112.079 118.656 112.134 118.656 112.19C118.656 112.246 118.645 112.301 118.623 112.353C118.602 112.404 118.57 112.451 118.53 112.49L110.31 120.67C110.27 120.709 110.238 120.756 110.217 120.807C110.195 120.859 110.184 120.914 110.184 120.97C110.184 121.026 110.195 121.081 110.217 121.133C110.238 121.184 110.27 121.231 110.31 121.27Z" fill="#F97316" stroke="#F97316"/>
<path d="M149.73 120.67L141.49 112.47C141.45 112.431 141.418 112.384 141.397 112.333C141.375 112.281 141.364 112.226 141.364 112.17C141.364 112.114 141.375 112.059 141.397 112.007C141.418 111.956 141.45 111.909 141.49 111.87L144.9 108.47C144.939 108.43 144.986 108.398 145.037 108.377C145.089 108.355 145.144 108.344 145.2 108.344C145.256 108.344 145.311 108.355 145.363 108.377C145.414 108.398 145.461 108.43 145.5 108.47L157.73 120.67C157.77 120.709 157.802 120.756 157.823 120.807C157.845 120.859 157.856 120.914 157.856 120.97C157.856 121.026 157.845 121.081 157.823 121.133C157.802 121.184 157.77 121.231 157.73 121.27L145.48 133.52C145.441 133.56 145.394 133.592 145.343 133.613C145.291 133.635 145.236 133.646 145.18 133.646C145.124 133.646 145.069 133.635 145.017 133.613C144.966 133.592 144.919 133.56 144.88 133.52L141.48 130.09C141.44 130.051 141.408 130.004 141.387 129.953C141.365 129.901 141.354 129.846 141.354 129.79C141.354 129.734 141.365 129.679 141.387 129.627C141.408 129.576 141.44 129.529 141.48 129.49L149.73 121.27C149.77 121.231 149.802 121.184 149.823 121.133C149.845 121.081 149.856 121.026 149.856 120.97C149.856 120.914 149.845 120.859 149.823 120.807C149.802 120.756 149.77 120.709 149.73 120.67Z" fill="#F97316" stroke="#F97316"/>
<mask id="path-9-inside-2_121_2" fill="white">
<path d="M31 31H402V222H31V31Z"/>
</mask>
<path d="M31 31V30H30V31H31ZM31 222H30V223H31V222ZM31 32H402V30H31V32ZM402 221H31V223H402V221ZM32 222V31H30V222H32Z" fill="#FFF6FC" mask="url(#path-9-inside-2_121_2)"/>
</g>
<defs>
<clipPath id="clip0_121_2">
<rect width="753" height="253" fill="white"/>
</clipPath>
</defs>
</svg>
