<svg width="881" height="330" viewBox="0 0 881 330" fill="none" xmlns="http://www.w3.org/2000/svg">
<path d="M25 25H746C806.751 25 856 74.2487 856 135V305H135C74.2487 305 25 255.751 25 195V25Z" stroke="#F97316" strokeWidth="50"/>
<path d="M461 50H746C792.944 50 831 88.0558 831 135V280H461V50Z" fill="#F97316"/>
<path fillRule="evenodd" clipRule="evenodd" d="M831.707 280.707C831.526 280.888 831.276 281 831 281H828.016V279H830V276.979H832V280C832 280.276 831.888 280.526 831.707 280.707ZM832 270.937H830V264.896H832V270.937ZM832 258.854H830V252.812H832V258.854ZM832 246.771H830V240.729H832V246.771ZM832 234.687H830V228.646H832V234.687ZM832 222.604H830V216.562H832V222.604ZM832 210.521H830V204.479H832V210.521ZM832 198.438H830V192.396H832V198.438ZM832 186.354H830V180.312H832V186.354ZM832 174.271H830V168.229H832V174.271ZM832 162.188H830V156.146H832V162.188ZM832 150.104H830V144.062H832V150.104ZM832 138.021H830V135C830 133.994 829.982 132.993 829.947 131.996L831.946 131.925C831.982 132.946 832 133.971 832 135V138.021ZM822.048 279H816.081V281H822.048V279ZM810.113 281V279H804.145V281H810.113ZM798.177 281V279H792.21V281H798.177ZM786.242 281V279H780.274V281H786.242ZM774.306 281V279H768.339V281H774.306ZM762.371 281V279H756.403V281H762.371ZM750.435 281V279H744.468V281H750.435ZM738.5 281V279H732.532V281H738.5ZM726.565 281V279H720.597V281H726.565ZM714.629 281V279H708.661V281H714.629ZM702.694 281V279H696.726V281H702.694ZM690.758 281V279H684.79V281H690.758ZM678.823 281V279H672.855V281H678.823ZM666.887 281V279H660.919V281H666.887ZM654.952 281V279H648.984V281H654.952ZM643.016 281V279H637.048V281H643.016ZM631.081 281V279H625.113V281H631.081ZM619.145 281V279H613.177V281H619.145ZM607.21 281V279H601.242V281H607.21ZM595.274 281V279H589.306V281H595.274ZM583.339 281V279H577.371V281H583.339ZM571.403 281V279H565.435V281H571.403ZM559.468 281V279H553.5V281H559.468ZM547.532 281V279H541.564V281H547.532ZM535.597 281V279H529.629V281H535.597ZM523.661 281V279H517.694V281H523.661ZM511.726 281V279H505.758V281H511.726ZM499.79 281V279H493.823V281H499.79ZM487.855 281V279H481.887V281H487.855ZM475.919 281V279H469.952V281H475.919ZM463.984 281V279H461V280V281H463.984ZM749.004 51.0527C748.007 51.0177 747.006 51 746 51H743.031V49H746C747.029 49 748.054 49.0181 749.075 49.0539L749.004 51.0527ZM737.094 49H731.156V51H737.094V49ZM725.219 51V49H719.281V51H725.219ZM713.344 51V49H707.406V51H713.344ZM701.469 51V49H695.531V51H701.469ZM689.594 51V49H683.656V51H689.594ZM677.719 51V49H671.781V51H677.719ZM665.844 51V49H659.906V51H665.844ZM653.969 51V49H648.031V51H653.969ZM642.094 51V49H636.156V51H642.094ZM630.219 51V49H624.281V51H630.219ZM618.344 51V49H612.406V51H618.344ZM606.469 51V49H600.531V51H606.469ZM594.594 51V49H588.656V51H594.594ZM582.719 51V49H576.781V51H582.719ZM570.844 51V49H564.906V51H570.844ZM558.969 51V49H553.031V51H558.969ZM547.094 51V49H541.156V51H547.094ZM535.219 51V49H529.281V51H535.219ZM523.344 51V49H517.406V51H523.344ZM511.469 51V49H505.531V51H511.469ZM499.594 51V49H493.656V51H499.594ZM487.719 51V49H481.781V51H487.719ZM475.844 51V49H469.906V51H475.844ZM463.969 51V49H461V50V51H463.969ZM760.923 52.3215C758.966 51.9706 756.986 51.6875 754.984 51.4747L755.195 49.4859C757.245 49.7037 759.272 49.9936 761.276 50.3529L760.923 52.3215ZM772.537 55.2776C770.647 54.6489 768.728 54.0855 766.781 53.59L767.274 51.6518C769.268 52.1591 771.233 52.7361 773.168 53.3799L772.537 55.2776ZM783.608 59.8682C781.825 58.9741 780.006 58.1417 778.154 57.3736L778.92 55.5261C780.817 56.3126 782.679 57.165 784.504 58.0804L783.608 59.8682ZM793.91 65.9934C792.271 64.8533 790.589 63.77 788.868 62.7465L789.89 61.0275C791.652 62.0753 793.374 63.1843 795.052 64.3516L793.91 65.9934ZM803.239 73.5202C801.776 72.158 800.265 70.8472 798.708 69.591L799.964 68.0345C801.558 69.3205 803.105 70.6622 804.602 72.0568L803.239 73.5202ZM811.409 82.2918C810.153 80.7348 808.842 79.2236 807.48 77.761L808.943 76.3979C810.338 77.8951 811.68 79.4421 812.966 81.0359L811.409 82.2918ZM818.253 92.1321C817.23 90.4108 816.147 88.7292 815.007 87.0901L816.648 85.948C817.816 87.626 818.925 89.3477 819.973 91.11L818.253 92.1321ZM823.626 102.846C822.858 100.994 822.026 99.1751 821.132 97.3925L822.92 96.4958C823.835 98.321 824.687 100.183 825.474 102.08L823.626 102.846ZM827.41 114.219C826.915 112.272 826.351 110.353 825.722 108.463L827.62 107.832C828.264 109.767 828.841 111.732 829.348 113.726L827.41 114.219ZM829.525 126.016C829.312 124.014 829.029 122.034 828.679 120.077L830.647 119.724C831.006 121.728 831.296 123.755 831.514 125.805L829.525 126.016Z" fill="black"/>
<mask id="path-4-inside-1_121_2" fill="white">
<path d="M50 50H461V280H135C88.0558 280 50 241.944 50 195V50Z"/>
</mask>
<path d="M49 49H461V51H51L49 49ZM461 281H135C87.5035 281 49 242.496 49 195H51C51 241.392 88.6081 279 135 279H461V281ZM135 281C87.5035 281 49 242.496 49 195V49L51 51V195C51 241.392 88.6081 279 135 279V281ZM461 50V280V50Z" fill="#0085FF" mask="url(#path-4-inside-1_121_2)"/>
<mask id="path-6-outside-2_121_2" maskUnits="userSpaceOnUse" x="439" y="163" width="43" height="16" fill="black">
<rect fill="white" x="439" y="163" width="43" height="16"/>
<path d="M440.782 177.46V164.622H480.864V177.46H440.782Z"/>
</mask>
<path d="M440.782 177.46V164.622H480.864V177.46H440.782Z" fill="white"/>
<path d="M440.782 177.46H439.782V178.46H440.782V177.46ZM440.782 164.622V163.622H439.782V164.622H440.782ZM480.864 164.622H481.864V163.622H480.864V164.622ZM480.864 177.46V178.46H481.864V177.46H480.864ZM441.782 177.46V164.622H439.782V177.46H441.782ZM440.782 165.622H480.864V163.622H440.782V165.622ZM479.864 164.622V177.46H481.864V164.622H479.864ZM480.864 176.46H440.782V178.46H480.864V176.46Z" fill="#0085FF" mask="url(#path-6-outside-2_121_2)"/>
<mask id="path-8-outside-3_121_2" maskUnits="userSpaceOnUse" x="220" y="139" width="208" height="56" fill="black">
<rect fill="white" x="220" y="139" width="208" height="56"/>
<path d="M241.275 194L221.625 140H232.125L245.175 175.625L258.225 140H267.9L280.95 175.625L293.925 140H304.5L284.85 194H277.05L263.025 155.75L249.075 194H241.275ZM313.253 194V140H362.978V149.975H323.228V161.975H355.178V172.025H323.228V184.025H362.978V194H313.253ZM372.25 194V140H413.65C415.55 140 417.275 140.475 418.825 141.425C420.425 142.375 421.7 143.65 422.65 145.25C423.6 146.8 424.075 148.525 424.075 150.425V161C424.075 161.65 424.025 162.275 423.925 162.875C423.825 163.475 423.65 164.05 423.4 164.6C424.25 165.75 424.925 166.95 425.425 168.2C425.975 169.45 426.25 170.7 426.25 171.95V183.575C426.25 185.475 425.775 187.225 424.825 188.825C423.875 190.375 422.6 191.625 421 192.575C419.4 193.525 417.65 194 415.75 194H372.25ZM383.05 184.025H415.3C415.55 184.025 415.775 183.95 415.975 183.8C416.175 183.6 416.275 183.375 416.275 183.125V172.4C416.275 172.15 416.175 171.95 415.975 171.8C415.775 171.6 415.55 171.5 415.3 171.5H383.05C382.8 171.5 382.575 171.6 382.375 171.8C382.225 171.95 382.15 172.15 382.15 172.4V183.125C382.15 183.375 382.225 183.6 382.375 183.8C382.575 183.95 382.8 184.025 383.05 184.025ZM383.05 161.525H413.2C413.45 161.525 413.65 161.45 413.8 161.3C413.95 161.1 414.025 160.875 414.025 160.625V150.875C414.025 150.625 413.95 150.425 413.8 150.275C413.65 150.075 413.45 149.975 413.2 149.975H383.05C382.8 149.975 382.575 150.075 382.375 150.275C382.225 150.425 382.15 150.625 382.15 150.875V160.625C382.15 160.875 382.225 161.1 382.375 161.3C382.575 161.45 382.8 161.525 383.05 161.525Z"/>
</mask>
<path d="M241.275 194L221.625 140H232.125L245.175 175.625L258.225 140H267.9L280.95 175.625L293.925 140H304.5L284.85 194H277.05L263.025 155.75L249.075 194H241.275ZM313.253 194V140H362.978V149.975H323.228V161.975H355.178V172.025H323.228V184.025H362.978V194H313.253ZM372.25 194V140H413.65C415.55 140 417.275 140.475 418.825 141.425C420.425 142.375 421.7 143.65 422.65 145.25C423.6 146.8 424.075 148.525 424.075 150.425V161C424.075 161.65 424.025 162.275 423.925 162.875C423.825 163.475 423.65 164.05 423.4 164.6C424.25 165.75 424.925 166.95 425.425 168.2C425.975 169.45 426.25 170.7 426.25 171.95V183.575C426.25 185.475 425.775 187.225 424.825 188.825C423.875 190.375 422.6 191.625 421 192.575C419.4 193.525 417.65 194 415.75 194H372.25ZM383.05 184.025H415.3C415.55 184.025 415.775 183.95 415.975 183.8C416.175 183.6 416.275 183.375 416.275 183.125V172.4C416.275 172.15 416.175 171.95 415.975 171.8C415.775 171.6 415.55 171.5 415.3 171.5H383.05C382.8 171.5 382.575 171.6 382.375 171.8C382.225 171.95 382.15 172.15 382.15 172.4V183.125C382.15 183.375 382.225 183.6 382.375 183.8C382.575 183.95 382.8 184.025 383.05 184.025ZM383.05 161.525H413.2C413.45 161.525 413.65 161.45 413.8 161.3C413.95 161.1 414.025 160.875 414.025 160.625V150.875C414.025 150.625 413.95 150.425 413.8 150.275C413.65 150.075 413.45 149.975 413.2 149.975H383.05C382.8 149.975 382.575 150.075 382.375 150.275C382.225 150.425 382.15 150.625 382.15 150.875V160.625C382.15 160.875 382.225 161.1 382.375 161.3C382.575 161.45 382.8 161.525 383.05 161.525Z" fill="#F97316"/>
<path d="M241.275 194L240.335 194.342L240.575 195H241.275V194ZM221.625 140V139H220.197L220.685 140.342L221.625 140ZM232.125 140L233.064 139.656L232.824 139H232.125V140ZM245.175 175.625L244.236 175.969L245.175 178.532L246.114 175.969L245.175 175.625ZM258.225 140V139H257.526L257.286 139.656L258.225 140ZM267.9 140L268.839 139.656L268.599 139H267.9V140ZM280.95 175.625L280.011 175.969L280.953 178.54L281.89 175.967L280.95 175.625ZM293.925 140V139H293.225L292.985 139.658L293.925 140ZM304.5 140L305.44 140.342L305.928 139H304.5V140ZM284.85 194V195H285.55L285.79 194.342L284.85 194ZM277.05 194L276.111 194.344L276.352 195H277.05V194ZM263.025 155.75L263.964 155.406L263.022 152.838L262.086 155.407L263.025 155.75ZM249.075 194V195H249.775L250.014 194.343L249.075 194ZM242.215 193.658L222.565 139.658L220.685 140.342L240.335 194.342L242.215 193.658ZM221.625 141H232.125V139H221.625V141ZM231.186 140.344L244.236 175.969L246.114 175.281L233.064 139.656L231.186 140.344ZM246.114 175.969L259.164 140.344L257.286 139.656L244.236 175.281L246.114 175.969ZM258.225 141H267.9V139H258.225V141ZM266.961 140.344L280.011 175.969L281.889 175.281L268.839 139.656L266.961 140.344ZM281.89 175.967L294.865 140.342L292.985 139.658L280.01 175.283L281.89 175.967ZM293.925 141H304.5V139H293.925V141ZM303.56 139.658L283.91 193.658L285.79 194.342L305.44 140.342L303.56 139.658ZM284.85 193H277.05V195H284.85V193ZM277.989 193.656L263.964 155.406L262.086 156.094L276.111 194.344L277.989 193.656ZM262.086 155.407L248.136 193.657L250.014 194.343L263.964 156.093L262.086 155.407ZM249.075 193H241.275V195H249.075V193ZM313.253 194H312.253V195H313.253V194ZM313.253 140V139H312.253V140H313.253ZM362.978 140H363.978V139H362.978V140ZM362.978 149.975V150.975H363.978V149.975H362.978ZM323.228 149.975V148.975H322.228V149.975H323.228ZM323.228 161.975H322.228V162.975H323.228V161.975ZM355.178 161.975H356.178V160.975H355.178V161.975ZM355.178 172.025V173.025H356.178V172.025H355.178ZM323.228 172.025V171.025H322.228V172.025H323.228ZM323.228 184.025H322.228V185.025H323.228V184.025ZM362.978 184.025H363.978V183.025H362.978V184.025ZM362.978 194V195H363.978V194H362.978ZM314.253 194V140H312.253V194H314.253ZM313.253 141H362.978V139H313.253V141ZM361.978 140V149.975H363.978V140H361.978ZM362.978 148.975H323.228V150.975H362.978V148.975ZM322.228 149.975V161.975H324.228V149.975H322.228ZM323.228 162.975H355.178V160.975H323.228V162.975ZM354.178 161.975V172.025H356.178V161.975H354.178ZM355.178 171.025H323.228V173.025H355.178V171.025ZM322.228 172.025V184.025H324.228V172.025H322.228ZM323.228 185.025H362.978V183.025H323.228V185.025ZM361.978 184.025V194H363.978V184.025H361.978ZM362.978 193H313.253V195H362.978V193ZM372.25 194H371.25V195H372.25V194ZM372.25 140V139H371.25V140H372.25ZM418.825 141.425L418.303 142.278L418.315 142.285L418.825 141.425ZM422.65 145.25L421.79 145.761L421.798 145.773L422.65 145.25ZM423.925 162.875L422.939 162.711L422.939 162.711L423.925 162.875ZM423.4 164.6L422.49 164.186L422.247 164.722L422.596 165.194L423.4 164.6ZM425.425 168.2L424.497 168.571L424.503 168.587L424.51 168.603L425.425 168.2ZM424.825 188.825L425.678 189.348L425.685 189.336L424.825 188.825ZM421 192.575L420.49 191.715L421 192.575ZM415.975 183.8L416.575 184.6L416.632 184.557L416.682 184.507L415.975 183.8ZM415.975 171.8L415.268 172.507L415.318 172.557L415.375 172.6L415.975 171.8ZM382.375 183.8L381.575 184.4L381.661 184.514L381.775 184.6L382.375 183.8ZM413.8 161.3L414.507 162.007L414.558 161.957L414.6 161.9L413.8 161.3ZM413.8 150.275L413 150.875L413.043 150.932L413.093 150.982L413.8 150.275ZM382.375 150.275L383.082 150.982L383.082 150.982L382.375 150.275ZM382.375 161.3L381.575 161.9L381.661 162.014L381.775 162.1L382.375 161.3ZM373.25 194V140H371.25V194H373.25ZM372.25 141H413.65V139H372.25V141ZM413.65 141C415.374 141 416.917 141.428 418.303 142.278L419.348 140.572C417.633 139.522 415.726 139 413.65 139V141ZM418.315 142.285C419.771 143.149 420.926 144.304 421.79 145.761L423.51 144.739C422.475 142.996 421.08 141.601 419.336 140.565L418.315 142.285ZM421.798 145.773C422.647 147.158 423.075 148.701 423.075 150.425H425.075C425.075 148.349 424.554 146.442 423.503 144.727L421.798 145.773ZM423.075 150.425V161H425.075V150.425H423.075ZM423.075 161C423.075 161.599 423.029 162.168 422.939 162.711L424.912 163.039C425.021 162.382 425.075 161.701 425.075 161H423.075ZM422.939 162.711C422.853 163.225 422.703 163.716 422.49 164.186L424.311 165.014C424.597 164.384 424.797 163.725 424.912 163.039L422.939 162.711ZM422.596 165.194C423.398 166.28 424.03 167.406 424.497 168.571L426.354 167.829C425.82 166.494 425.102 165.22 424.204 164.006L422.596 165.194ZM424.51 168.603C425.009 169.738 425.25 170.851 425.25 171.95H427.25C427.25 170.549 426.941 169.162 426.341 167.797L424.51 168.603ZM425.25 171.95V183.575H427.25V171.95H425.25ZM425.25 183.575C425.25 185.299 424.822 186.872 423.965 188.314L425.685 189.336C426.729 187.578 427.25 185.651 427.25 183.575H425.25ZM423.973 188.302C423.11 189.711 421.953 190.846 420.49 191.715L421.511 193.435C423.247 192.404 424.641 191.039 425.678 189.348L423.973 188.302ZM420.49 191.715C419.048 192.571 417.474 193 415.75 193V195C417.826 195 419.753 194.479 421.511 193.435L420.49 191.715ZM415.75 193H372.25V195H415.75V193ZM383.05 185.025H415.3V183.025H383.05V185.025ZM415.3 185.025C415.767 185.025 416.202 184.88 416.575 184.6L415.375 183C415.348 183.02 415.334 183.025 415.3 183.025V185.025ZM416.682 184.507C417.043 184.146 417.275 183.676 417.275 183.125H415.275C415.275 183.12 415.276 183.112 415.278 183.102C415.28 183.091 415.283 183.082 415.286 183.075C415.289 183.068 415.291 183.066 415.289 183.069C415.288 183.071 415.281 183.08 415.268 183.093L416.682 184.507ZM417.275 183.125V172.4H415.275V183.125H417.275ZM417.275 172.4C417.275 171.835 417.027 171.339 416.575 171L415.375 172.6C415.366 172.593 415.333 172.564 415.306 172.51C415.279 172.455 415.275 172.412 415.275 172.4H417.275ZM416.682 171.093C416.322 170.732 415.851 170.5 415.3 170.5V172.5C415.296 172.5 415.287 172.499 415.277 172.497C415.267 172.495 415.257 172.492 415.25 172.489C415.243 172.486 415.241 172.484 415.244 172.486C415.247 172.488 415.255 172.494 415.268 172.507L416.682 171.093ZM415.3 170.5H383.05V172.5H415.3V170.5ZM383.05 170.5C382.499 170.5 382.029 170.732 381.668 171.093L383.082 172.507C383.095 172.494 383.104 172.488 383.107 172.486C383.109 172.484 383.107 172.486 383.1 172.489C383.093 172.492 383.084 172.495 383.073 172.497C383.063 172.499 383.055 172.5 383.05 172.5V170.5ZM381.668 171.093C381.297 171.464 381.15 171.936 381.15 172.4H383.15C383.15 172.375 383.154 172.384 383.143 172.414C383.131 172.446 383.109 172.48 383.082 172.507L381.668 171.093ZM381.15 172.4V183.125H383.15V172.4H381.15ZM381.15 183.125C381.15 183.591 381.295 184.027 381.575 184.4L383.175 183.2C383.155 183.173 383.15 183.159 383.15 183.125H381.15ZM381.775 184.6C382.148 184.88 382.584 185.025 383.05 185.025V183.025C383.017 183.025 383.002 183.02 382.975 183L381.775 184.6ZM383.05 162.525H413.2V160.525H383.05V162.525ZM413.2 162.525C413.664 162.525 414.137 162.378 414.507 162.007L413.093 160.593C413.12 160.566 413.154 160.545 413.187 160.532C413.216 160.521 413.225 160.525 413.2 160.525V162.525ZM414.6 161.9C414.88 161.527 415.025 161.091 415.025 160.625H413.025C413.025 160.659 413.02 160.673 413 160.7L414.6 161.9ZM415.025 160.625V150.875H413.025V160.625H415.025ZM415.025 150.875C415.025 150.411 414.878 149.939 414.507 149.568L413.093 150.982C413.066 150.955 413.045 150.921 413.033 150.889C413.022 150.859 413.025 150.85 413.025 150.875H415.025ZM414.6 149.675C414.261 149.223 413.765 148.975 413.2 148.975V150.975C413.188 150.975 413.145 150.972 413.09 150.944C413.036 150.917 413.007 150.884 413 150.875L414.6 149.675ZM413.2 148.975H383.05V150.975H413.2V148.975ZM383.05 148.975C382.499 148.975 382.029 149.207 381.668 149.568L383.082 150.982C383.095 150.969 383.104 150.963 383.107 150.961C383.109 150.959 383.107 150.961 383.1 150.964C383.093 150.967 383.084 150.97 383.073 150.972C383.063 150.974 383.055 150.975 383.05 150.975V148.975ZM381.668 149.568C381.297 149.939 381.15 150.411 381.15 150.875H383.15C383.15 150.85 383.154 150.859 383.143 150.889C383.131 150.921 383.109 150.955 383.082 150.982L381.668 149.568ZM381.15 150.875V160.625H383.15V150.875H381.15ZM381.15 160.625C381.15 161.091 381.295 161.527 381.575 161.9L383.175 160.7C383.155 160.673 383.15 160.659 383.15 160.625H381.15ZM381.775 162.1C382.148 162.38 382.584 162.525 383.05 162.525V160.525C383.017 160.525 383.002 160.52 382.975 160.5L381.775 162.1Z" fill="#FFC700" mask="url(#path-8-outside-3_121_2)"/>
<mask id="path-10-outside-4_121_2" maskUnits="userSpaceOnUse" x="493" y="139" width="295" height="82" fill="black">
<rect fill="white" x="493" y="139" width="295" height="82"/>
<path d="M506.019 200C503.916 200 501.98 199.474 500.209 198.423C498.494 197.372 497.11 195.988 496.059 194.273C495.008 192.502 494.482 190.566 494.482 188.463V140.24H505.438V187.965C505.438 188.242 505.521 188.491 505.687 188.712C505.908 188.878 506.157 188.961 506.434 188.961H542.124C542.401 188.961 542.65 188.878 542.871 188.712C543.092 188.491 543.203 188.242 543.203 187.965V140.24H554.242V188.463C554.242 190.566 553.716 192.502 552.665 194.273C551.614 195.988 550.203 197.372 548.432 198.423C546.717 199.474 544.808 200 542.705 200H506.019ZM564.876 219.09V151.86H602.309C604.412 151.86 606.321 152.386 608.036 153.437C609.807 154.488 611.19 155.872 612.186 157.587C613.238 159.302 613.763 161.211 613.763 163.314V188.546C613.763 190.649 613.238 192.558 612.186 194.273C611.19 195.988 609.807 197.372 608.036 198.423C606.321 199.474 604.412 200 602.309 200H575.749V219.09H564.876ZM576.745 189.127H601.894C602.171 189.127 602.392 189.044 602.558 188.878C602.78 188.657 602.89 188.408 602.89 188.131V163.729C602.89 163.452 602.78 163.231 602.558 163.065C602.392 162.844 602.171 162.733 601.894 162.733H576.745C576.469 162.733 576.22 162.844 575.998 163.065C575.832 163.231 575.749 163.452 575.749 163.729V188.131C575.749 188.408 575.832 188.657 575.998 188.878C576.22 189.044 576.469 189.127 576.745 189.127ZM632.942 200C630.839 200 628.902 199.474 627.132 198.423C625.416 197.372 624.033 195.988 622.982 194.273C621.986 192.558 621.488 190.649 621.488 188.546V170.452H659.502V163.729C659.502 163.452 659.391 163.231 659.17 163.065C659.004 162.844 658.782 162.733 658.506 162.733H621.488V151.86H658.921C661.023 151.86 662.932 152.386 664.648 153.437C666.418 154.488 667.802 155.872 668.798 157.587C669.849 159.302 670.375 161.211 670.375 163.314V200H632.942ZM633.357 189.127H659.502V180.246H632.361V188.131C632.361 188.408 632.444 188.657 632.61 188.878C632.831 189.044 633.08 189.127 633.357 189.127ZM687.998 217.845V206.889H716.965C717.242 206.889 717.463 206.778 717.629 206.557C717.851 206.391 717.961 206.17 717.961 205.893V200H691.401C689.354 200 687.445 199.474 685.674 198.423C683.959 197.372 682.576 195.988 681.524 194.273C680.473 192.558 679.947 190.649 679.947 188.546V152.026H690.82V188.131C690.82 188.408 690.903 188.657 691.069 188.878C691.291 189.044 691.54 189.127 691.816 189.127H716.965C717.242 189.127 717.463 189.044 717.629 188.878C717.851 188.657 717.961 188.408 717.961 188.131V152.026H728.834V206.391C728.834 208.494 728.336 210.403 727.34 212.118C726.344 213.889 724.961 215.272 723.19 216.268C721.475 217.319 719.566 217.845 717.463 217.845H687.998ZM748.684 200C746.582 200 744.645 199.474 742.874 198.423C741.159 197.372 739.776 195.988 738.724 194.273C737.728 192.558 737.23 190.649 737.23 188.546V170.452H775.244V163.729C775.244 163.452 775.134 163.231 774.912 163.065C774.746 162.844 774.525 162.733 774.248 162.733H737.23V151.86H774.663C776.766 151.86 778.675 152.386 780.39 153.437C782.161 154.488 783.544 155.872 784.54 157.587C785.592 159.302 786.117 161.211 786.117 163.314V200H748.684ZM749.099 189.127H775.244V180.246H748.103V188.131C748.103 188.408 748.186 188.657 748.352 188.878C748.574 189.044 748.823 189.127 749.099 189.127Z"/>
</mask>
<path d="M506.019 200C503.916 200 501.98 199.474 500.209 198.423C498.494 197.372 497.11 195.988 496.059 194.273C495.008 192.502 494.482 190.566 494.482 188.463V140.24H505.438V187.965C505.438 188.242 505.521 188.491 505.687 188.712C505.908 188.878 506.157 188.961 506.434 188.961H542.124C542.401 188.961 542.65 188.878 542.871 188.712C543.092 188.491 543.203 188.242 543.203 187.965V140.24H554.242V188.463C554.242 190.566 553.716 192.502 552.665 194.273C551.614 195.988 550.203 197.372 548.432 198.423C546.717 199.474 544.808 200 542.705 200H506.019ZM564.876 219.09V151.86H602.309C604.412 151.86 606.321 152.386 608.036 153.437C609.807 154.488 611.19 155.872 612.186 157.587C613.238 159.302 613.763 161.211 613.763 163.314V188.546C613.763 190.649 613.238 192.558 612.186 194.273C611.19 195.988 609.807 197.372 608.036 198.423C606.321 199.474 604.412 200 602.309 200H575.749V219.09H564.876ZM576.745 189.127H601.894C602.171 189.127 602.392 189.044 602.558 188.878C602.78 188.657 602.89 188.408 602.89 188.131V163.729C602.89 163.452 602.78 163.231 602.558 163.065C602.392 162.844 602.171 162.733 601.894 162.733H576.745C576.469 162.733 576.22 162.844 575.998 163.065C575.832 163.231 575.749 163.452 575.749 163.729V188.131C575.749 188.408 575.832 188.657 575.998 188.878C576.22 189.044 576.469 189.127 576.745 189.127ZM632.942 200C630.839 200 628.902 199.474 627.132 198.423C625.416 197.372 624.033 195.988 622.982 194.273C621.986 192.558 621.488 190.649 621.488 188.546V170.452H659.502V163.729C659.502 163.452 659.391 163.231 659.17 163.065C659.004 162.844 658.782 162.733 658.506 162.733H621.488V151.86H658.921C661.023 151.86 662.932 152.386 664.648 153.437C666.418 154.488 667.802 155.872 668.798 157.587C669.849 159.302 670.375 161.211 670.375 163.314V200H632.942ZM633.357 189.127H659.502V180.246H632.361V188.131C632.361 188.408 632.444 188.657 632.61 188.878C632.831 189.044 633.08 189.127 633.357 189.127ZM687.998 217.845V206.889H716.965C717.242 206.889 717.463 206.778 717.629 206.557C717.851 206.391 717.961 206.17 717.961 205.893V200H691.401C689.354 200 687.445 199.474 685.674 198.423C683.959 197.372 682.576 195.988 681.524 194.273C680.473 192.558 679.947 190.649 679.947 188.546V152.026H690.82V188.131C690.82 188.408 690.903 188.657 691.069 188.878C691.291 189.044 691.54 189.127 691.816 189.127H716.965C717.242 189.127 717.463 189.044 717.629 188.878C717.851 188.657 717.961 188.408 717.961 188.131V152.026H728.834V206.391C728.834 208.494 728.336 210.403 727.34 212.118C726.344 213.889 724.961 215.272 723.19 216.268C721.475 217.319 719.566 217.845 717.463 217.845H687.998ZM748.684 200C746.582 200 744.645 199.474 742.874 198.423C741.159 197.372 739.776 195.988 738.724 194.273C737.728 192.558 737.23 190.649 737.23 188.546V170.452H775.244V163.729C775.244 163.452 775.134 163.231 774.912 163.065C774.746 162.844 774.525 162.733 774.248 162.733H737.23V151.86H774.663C776.766 151.86 778.675 152.386 780.39 153.437C782.161 154.488 783.544 155.872 784.54 157.587C785.592 159.302 786.117 161.211 786.117 163.314V200H748.684ZM749.099 189.127H775.244V180.246H748.103V188.131C748.103 188.408 748.186 188.657 748.352 188.878C748.574 189.044 748.823 189.127 749.099 189.127Z" fill="#1E1E1E"/>
<path d="M500.209 198.423L499.686 199.276L499.698 199.283L500.209 198.423ZM496.059 194.273L495.199 194.784L495.206 194.796L496.059 194.273ZM494.482 140.24V139.24H493.482V140.24H494.482ZM505.438 140.24H506.438V139.24H505.438V140.24ZM505.687 188.712L504.887 189.312L504.973 189.426L505.087 189.512L505.687 188.712ZM542.871 188.712L543.471 189.512L543.528 189.469L543.578 189.419L542.871 188.712ZM543.203 140.24V139.24H542.203V140.24H543.203ZM554.242 140.24H555.242V139.24H554.242V140.24ZM552.665 194.273L553.518 194.796L553.525 194.784L552.665 194.273ZM548.432 198.423L547.921 197.563L547.909 197.57L548.432 198.423ZM506.019 199C504.092 199 502.332 198.521 500.72 197.563L499.698 199.283C501.627 200.428 503.741 201 506.019 201V199ZM500.732 197.57C499.151 196.602 497.88 195.331 496.912 193.75L495.206 194.796C496.34 196.645 497.837 198.142 499.686 199.276L500.732 197.57ZM496.919 193.762C495.961 192.15 495.482 190.39 495.482 188.463H493.482C493.482 190.741 494.054 192.855 495.199 194.784L496.919 193.762ZM495.482 188.463V140.24H493.482V188.463H495.482ZM494.482 141.24H505.438V139.24H494.482V141.24ZM504.438 140.24V187.965H506.438V140.24H504.438ZM504.438 187.965C504.438 188.458 504.591 188.918 504.887 189.312L506.487 188.112C506.451 188.064 506.438 188.025 506.438 187.965H504.438ZM505.087 189.512C505.481 189.808 505.941 189.961 506.434 189.961V187.961C506.374 187.961 506.335 187.948 506.287 187.912L505.087 189.512ZM506.434 189.961H542.124V187.961H506.434V189.961ZM542.124 189.961C542.617 189.961 543.077 189.808 543.471 189.512L542.271 187.912C542.223 187.948 542.184 187.961 542.124 187.961V189.961ZM543.578 189.419C543.96 189.037 544.203 188.543 544.203 187.965H542.203C542.203 187.967 542.203 187.965 542.204 187.961C542.205 187.957 542.206 187.954 542.206 187.953C542.208 187.95 542.201 187.968 542.164 188.005L543.578 189.419ZM544.203 187.965V140.24H542.203V187.965H544.203ZM543.203 141.24H554.242V139.24H543.203V141.24ZM553.242 140.24V188.463H555.242V140.24H553.242ZM553.242 188.463C553.242 190.39 552.763 192.15 551.805 193.762L553.525 194.784C554.67 192.855 555.242 190.741 555.242 188.463H553.242ZM551.812 193.75C550.848 195.324 549.556 196.593 547.921 197.563L548.943 199.283C550.85 198.151 552.379 196.653 553.518 194.796L551.812 193.75ZM547.909 197.57C546.359 198.521 544.632 199 542.705 199V201C544.983 201 547.075 200.428 548.955 199.276L547.909 197.57ZM542.705 199H506.019V201H542.705V199ZM564.876 219.09H563.876V220.09H564.876V219.09ZM564.876 151.86V150.86H563.876V151.86H564.876ZM608.036 153.437L607.514 154.29L607.526 154.297L608.036 153.437ZM612.186 157.587L611.322 158.089L611.328 158.099L611.334 158.11L612.186 157.587ZM612.186 194.273L611.334 193.75L611.328 193.761L611.322 193.771L612.186 194.273ZM608.036 198.423L607.526 197.563L607.514 197.57L608.036 198.423ZM575.749 200V199H574.749V200H575.749ZM575.749 219.09V220.09H576.749V219.09H575.749ZM602.558 188.878L603.265 189.585L603.265 189.585L602.558 188.878ZM602.558 163.065L601.758 163.665L601.844 163.779L601.958 163.865L602.558 163.065ZM575.998 163.065L576.705 163.772L576.705 163.772L575.998 163.065ZM575.998 188.878L575.198 189.478L575.284 189.592L575.398 189.678L575.998 188.878ZM565.876 219.09V151.86H563.876V219.09H565.876ZM564.876 152.86H602.309V150.86H564.876V152.86ZM602.309 152.86C604.236 152.86 605.963 153.339 607.514 154.29L608.559 152.584C606.679 151.432 604.588 150.86 602.309 150.86V152.86ZM607.526 154.297C609.156 155.265 610.415 156.527 611.322 158.089L613.051 157.085C611.966 155.216 610.458 153.712 608.547 152.577L607.526 154.297ZM611.334 158.11C612.284 159.66 612.763 161.387 612.763 163.314H614.763C614.763 161.036 614.191 158.944 613.039 157.064L611.334 158.11ZM612.763 163.314V188.546H614.763V163.314H612.763ZM612.763 188.546C612.763 190.473 612.284 192.2 611.334 193.75L613.039 194.796C614.191 192.916 614.763 190.824 614.763 188.546H612.763ZM611.322 193.771C610.415 195.333 609.156 196.595 607.526 197.563L608.547 199.283C610.458 198.148 611.966 196.644 613.051 194.775L611.322 193.771ZM607.514 197.57C605.963 198.521 604.236 199 602.309 199V201C604.588 201 606.679 200.428 608.559 199.276L607.514 197.57ZM602.309 199H575.749V201H602.309V199ZM574.749 200V219.09H576.749V200H574.749ZM575.749 218.09H564.876V220.09H575.749V218.09ZM576.745 190.127H601.894V188.127H576.745V190.127ZM601.894 190.127C602.385 190.127 602.879 189.972 603.265 189.585L601.851 188.171C601.859 188.163 601.87 188.154 601.883 188.146C601.896 188.138 601.907 188.132 601.917 188.128C601.936 188.121 601.933 188.127 601.894 188.127V190.127ZM603.265 189.585C603.648 189.203 603.89 188.709 603.89 188.131H601.89C601.89 188.133 601.89 188.131 601.891 188.127C601.892 188.123 601.893 188.12 601.894 188.119C601.895 188.116 601.888 188.134 601.851 188.171L603.265 189.585ZM603.89 188.131V163.729H601.89V188.131H603.89ZM603.89 163.729C603.89 163.138 603.632 162.62 603.158 162.265L601.958 163.865C601.96 163.866 601.935 163.847 601.913 163.803C601.891 163.759 601.89 163.727 601.89 163.729H603.89ZM603.358 162.465C603.004 161.992 602.486 161.733 601.894 161.733V163.733C601.896 163.733 601.865 163.732 601.821 163.71C601.777 163.688 601.757 163.664 601.758 163.665L603.358 162.465ZM601.894 161.733H576.745V163.733H601.894V161.733ZM576.745 161.733C576.168 161.733 575.673 161.976 575.291 162.358L576.705 163.772C576.742 163.735 576.76 163.728 576.757 163.73C576.756 163.73 576.753 163.731 576.749 163.732C576.745 163.733 576.743 163.733 576.745 163.733V161.733ZM575.291 162.358C574.905 162.745 574.749 163.238 574.749 163.729H576.749C576.749 163.691 576.755 163.688 576.748 163.707C576.744 163.716 576.739 163.728 576.731 163.741C576.722 163.753 576.713 163.764 576.705 163.772L575.291 162.358ZM574.749 163.729V188.131H576.749V163.729H574.749ZM574.749 188.131C574.749 188.624 574.903 189.084 575.198 189.478L576.798 188.278C576.762 188.23 576.749 188.191 576.749 188.131H574.749ZM575.398 189.678C575.793 189.974 576.252 190.127 576.745 190.127V188.127C576.685 188.127 576.647 188.114 576.598 188.078L575.398 189.678ZM627.132 198.423L626.609 199.276L626.621 199.283L627.132 198.423ZM622.982 194.273L622.117 194.775L622.123 194.785L622.129 194.796L622.982 194.273ZM621.488 170.452V169.452H620.488V170.452H621.488ZM659.502 170.452V171.452H660.502V170.452H659.502ZM659.17 163.065L658.37 163.665L658.455 163.779L658.57 163.865L659.17 163.065ZM621.488 162.733H620.488V163.733H621.488V162.733ZM621.488 151.86V150.86H620.488V151.86H621.488ZM664.648 153.437L664.125 154.29L664.137 154.297L664.648 153.437ZM668.798 157.587L667.933 158.089L667.939 158.099L667.945 158.11L668.798 157.587ZM670.375 200V201H671.375V200H670.375ZM659.502 189.127V190.127H660.502V189.127H659.502ZM659.502 180.246H660.502V179.246H659.502V180.246ZM632.361 180.246V179.246H631.361V180.246H632.361ZM632.61 188.878L631.81 189.478L631.895 189.592L632.01 189.678L632.61 188.878ZM632.942 199C631.015 199 629.255 198.521 627.642 197.563L626.621 199.283C628.55 200.428 630.663 201 632.942 201V199ZM627.654 197.57C626.073 196.602 624.803 195.331 623.834 193.75L622.129 194.796C623.263 196.645 624.759 198.142 626.609 199.276L627.654 197.57ZM623.846 193.771C622.944 192.217 622.488 190.483 622.488 188.546H620.488C620.488 190.814 621.027 192.898 622.117 194.775L623.846 193.771ZM622.488 188.546V170.452H620.488V188.546H622.488ZM621.488 171.452H659.502V169.452H621.488V171.452ZM660.502 170.452V163.729H658.502V170.452H660.502ZM660.502 163.729C660.502 163.138 660.243 162.62 659.77 162.265L658.57 163.865C658.571 163.866 658.546 163.847 658.524 163.803C658.502 163.759 658.502 163.727 658.502 163.729H660.502ZM659.97 162.465C659.615 161.992 659.097 161.733 658.506 161.733V163.733C658.507 163.733 658.476 163.732 658.432 163.71C658.388 163.688 658.369 163.664 658.37 163.665L659.97 162.465ZM658.506 161.733H621.488V163.733H658.506V161.733ZM622.488 162.733V151.86H620.488V162.733H622.488ZM621.488 152.86H658.921V150.86H621.488V152.86ZM658.921 152.86C660.847 152.86 662.574 153.339 664.125 154.29L665.17 152.584C663.29 151.432 661.199 150.86 658.921 150.86V152.86ZM664.137 154.297C665.767 155.265 667.026 156.527 667.933 158.089L669.662 157.085C668.577 155.216 667.07 153.712 665.158 152.577L664.137 154.297ZM667.945 158.11C668.895 159.66 669.375 161.387 669.375 163.314H671.375C671.375 161.036 670.802 158.944 669.65 157.064L667.945 158.11ZM669.375 163.314V200H671.375V163.314H669.375ZM670.375 199H632.942V201H670.375V199ZM633.357 190.127H659.502V188.127H633.357V190.127ZM660.502 189.127V180.246H658.502V189.127H660.502ZM659.502 179.246H632.361V181.246H659.502V179.246ZM631.361 180.246V188.131H633.361V180.246H631.361ZM631.361 188.131C631.361 188.624 631.514 189.084 631.81 189.478L633.41 188.278C633.373 188.23 633.361 188.191 633.361 188.131H631.361ZM632.01 189.678C632.404 189.974 632.864 190.127 633.357 190.127V188.127C633.296 188.127 633.258 188.114 633.21 188.078L632.01 189.678ZM687.998 217.845H686.998V218.845H687.998V217.845ZM687.998 206.889V205.889H686.998V206.889H687.998ZM717.629 206.557L717.029 205.757L716.915 205.843L716.829 205.957L717.629 206.557ZM717.961 200H718.961V199H717.961V200ZM685.674 198.423L685.152 199.276L685.164 199.283L685.674 198.423ZM681.524 194.273L682.377 193.75L682.377 193.75L681.524 194.273ZM679.947 152.026V151.026H678.947V152.026H679.947ZM690.82 152.026H691.82V151.026H690.82V152.026ZM691.069 188.878L690.269 189.478L690.355 189.592L690.469 189.678L691.069 188.878ZM717.629 188.878L718.337 189.585L718.337 189.585L717.629 188.878ZM717.961 152.026V151.026H716.961V152.026H717.961ZM728.834 152.026H729.834V151.026H728.834V152.026ZM727.34 212.118L726.476 211.616L726.469 211.628L727.34 212.118ZM723.19 216.268L722.7 215.396L722.684 215.406L722.668 215.415L723.19 216.268ZM688.998 217.845V206.889H686.998V217.845H688.998ZM687.998 207.889H716.965V205.889H687.998V207.889ZM716.965 207.889C717.557 207.889 718.075 207.63 718.429 207.157L716.829 205.957C716.828 205.958 716.848 205.934 716.892 205.912C716.936 205.89 716.967 205.889 716.965 205.889V207.889ZM718.229 207.357C718.703 207.002 718.961 206.484 718.961 205.893H716.961C716.961 205.895 716.962 205.863 716.984 205.819C717.006 205.775 717.031 205.756 717.029 205.757L718.229 207.357ZM718.961 205.893V200H716.961V205.893H718.961ZM717.961 199H691.401V201H717.961V199ZM691.401 199C689.535 199 687.802 198.523 686.185 197.563L685.164 199.283C687.088 200.425 689.173 201 691.401 201V199ZM686.197 197.57C684.616 196.602 683.346 195.331 682.377 193.75L680.672 194.796C681.806 196.645 683.302 198.142 685.152 199.276L686.197 197.57ZM682.377 193.75C681.427 192.2 680.947 190.473 680.947 188.546H678.947C678.947 190.824 679.52 192.916 680.672 194.796L682.377 193.75ZM680.947 188.546V152.026H678.947V188.546H680.947ZM679.947 153.026H690.82V151.026H679.947V153.026ZM689.82 152.026V188.131H691.82V152.026H689.82ZM689.82 188.131C689.82 188.624 689.974 189.084 690.269 189.478L691.869 188.278C691.833 188.23 691.82 188.191 691.82 188.131H689.82ZM690.469 189.678C690.864 189.974 691.323 190.127 691.816 190.127V188.127C691.756 188.127 691.718 188.114 691.669 188.078L690.469 189.678ZM691.816 190.127H716.965V188.127H691.816V190.127ZM716.965 190.127C717.456 190.127 717.95 189.972 718.337 189.585L716.922 188.171C716.93 188.163 716.941 188.154 716.954 188.146C716.967 188.138 716.979 188.132 716.988 188.128C717.007 188.121 717.004 188.127 716.965 188.127V190.127ZM718.337 189.585C718.719 189.203 718.961 188.709 718.961 188.131H716.961C716.961 188.133 716.961 188.131 716.962 188.127C716.963 188.123 716.964 188.12 716.965 188.119C716.966 188.116 716.959 188.134 716.922 188.171L718.337 189.585ZM718.961 188.131V152.026H716.961V188.131H718.961ZM717.961 153.026H728.834V151.026H717.961V153.026ZM727.834 152.026V206.391H729.834V152.026H727.834ZM727.834 206.391C727.834 208.328 727.378 210.062 726.476 211.616L728.205 212.62C729.295 210.743 729.834 208.659 729.834 206.391H727.834ZM726.469 211.628C725.563 213.239 724.311 214.49 722.7 215.396L723.681 217.14C725.611 216.054 727.126 214.539 728.212 212.608L726.469 211.628ZM722.668 215.415C721.117 216.366 719.39 216.845 717.463 216.845V218.845C719.742 218.845 721.833 218.273 723.713 217.121L722.668 215.415ZM717.463 216.845H687.998V218.845H717.463V216.845ZM742.874 198.423L742.352 199.276L742.364 199.283L742.874 198.423ZM738.724 194.273L737.86 194.775L737.866 194.785L737.872 194.796L738.724 194.273ZM737.23 170.452V169.452H736.23V170.452H737.23ZM775.244 170.452V171.452H776.244V170.452H775.244ZM774.912 163.065L774.112 163.665L774.198 163.779L774.312 163.865L774.912 163.065ZM737.23 162.733H736.23V163.733H737.23V162.733ZM737.23 151.86V150.86H736.23V151.86H737.23ZM780.39 153.437L779.868 154.29L779.88 154.297L780.39 153.437ZM784.54 157.587L783.676 158.089L783.682 158.099L783.688 158.11L784.54 157.587ZM786.117 200V201H787.117V200H786.117ZM775.244 189.127V190.127H776.244V189.127H775.244ZM775.244 180.246H776.244V179.246H775.244V180.246ZM748.103 180.246V179.246H747.103V180.246H748.103ZM748.352 188.878L747.552 189.478L747.638 189.592L747.752 189.678L748.352 188.878ZM748.684 199C746.757 199 744.998 198.521 743.385 197.563L742.364 199.283C744.292 200.428 746.406 201 748.684 201V199ZM743.397 197.57C741.816 196.602 740.546 195.331 739.577 193.75L737.872 194.796C739.006 196.645 740.502 198.142 742.352 199.276L743.397 197.57ZM739.589 193.771C738.687 192.217 738.23 190.483 738.23 188.546H736.23C736.23 190.814 736.77 192.898 737.86 194.775L739.589 193.771ZM738.23 188.546V170.452H736.23V188.546H738.23ZM737.23 171.452H775.244V169.452H737.23V171.452ZM776.244 170.452V163.729H774.244V170.452H776.244ZM776.244 163.729C776.244 163.138 775.986 162.62 775.512 162.265L774.312 163.865C774.314 163.866 774.289 163.847 774.267 163.803C774.245 163.759 774.244 163.727 774.244 163.729H776.244ZM775.712 162.465C775.358 161.992 774.84 161.733 774.248 161.733V163.733C774.25 163.733 774.219 163.732 774.175 163.71C774.131 163.688 774.111 163.664 774.112 163.665L775.712 162.465ZM774.248 161.733H737.23V163.733H774.248V161.733ZM738.23 162.733V151.86H736.23V162.733H738.23ZM737.23 152.86H774.663V150.86H737.23V152.86ZM774.663 152.86C776.59 152.86 778.317 153.339 779.868 154.29L780.913 152.584C779.033 151.432 776.942 150.86 774.663 150.86V152.86ZM779.88 154.297C781.51 155.265 782.769 156.527 783.676 158.089L785.405 157.085C784.32 155.216 782.812 153.712 780.901 152.577L779.88 154.297ZM783.688 158.11C784.638 159.66 785.117 161.387 785.117 163.314H787.117C787.117 161.036 786.545 158.944 785.393 157.064L783.688 158.11ZM785.117 163.314V200H787.117V163.314H785.117ZM786.117 199H748.684V201H786.117V199ZM749.099 190.127H775.244V188.127H749.099V190.127ZM776.244 189.127V180.246H774.244V189.127H776.244ZM775.244 179.246H748.103V181.246H775.244V179.246ZM747.103 180.246V188.131H749.103V180.246H747.103ZM747.103 188.131C747.103 188.624 747.257 189.084 747.552 189.478L749.152 188.278C749.116 188.23 749.103 188.191 749.103 188.131H747.103ZM747.752 189.678C748.147 189.974 748.606 190.127 749.099 190.127V188.127C749.039 188.127 749.001 188.114 748.952 188.078L747.752 189.678Z" fill="#0085FF" mask="url(#path-10-outside-4_121_2)"/>
<path d="M162.167 194.99C161.611 194.99 161.333 195.267 161.333 195.823V202.292C161.333 202.568 161.443 202.833 161.638 203.028C161.834 203.224 162.099 203.333 162.375 203.333H168.625C168.901 203.333 169.166 203.443 169.362 203.638C169.557 203.834 169.667 204.099 169.667 204.375V210.885C169.667 211.406 169.406 211.667 168.885 211.667H137.5C136.715 211.667 136.323 211.274 136.323 210.49L136.344 204.635C136.344 203.774 136.774 203.344 137.635 203.344L143.635 203.333C143.913 203.331 144.178 203.219 144.373 203.022C144.568 202.825 144.677 202.558 144.677 202.281L144.667 195.844C144.667 195.295 144.392 195.021 143.844 195.021C135.017 194.979 125.854 194.983 116.354 195.031C110.865 195.063 107.135 191.552 107.146 186.01C107.167 170.163 107.177 153.983 107.177 137.469C107.177 130.958 111.271 128.281 117.26 128.281C142.031 128.302 166.156 128.326 189.635 128.354C196.583 128.354 198.99 132.802 198.927 139.073C198.76 154.816 198.75 170.215 198.896 185.271C198.958 191.806 195.562 195.059 188.708 195.031C180.104 195.003 171.257 194.99 162.167 194.99ZM190.5 137.406C190.5 137.21 190.422 137.022 190.283 136.883C190.145 136.745 189.957 136.667 189.76 136.667H116.24C116.043 136.667 115.855 136.745 115.717 136.883C115.578 137.022 115.5 137.21 115.5 137.406V185.927C115.5 186.123 115.578 186.311 115.717 186.45C115.855 186.589 116.043 186.667 116.24 186.667H189.76C189.957 186.667 190.145 186.589 190.283 186.45C190.422 186.311 190.5 186.123 190.5 185.927V137.406Z" fill="#FFF6FC" stroke="#FFC700"/>
<path d="M159.735 145.632L154.581 144.347C154.329 144.284 154.075 144.437 154.012 144.689L145.923 177.133C145.861 177.384 146.013 177.638 146.265 177.701L151.419 178.986C151.671 179.049 151.925 178.896 151.988 178.645L160.077 146.201C160.139 145.949 159.987 145.695 159.735 145.632Z" fill="#F97316" stroke="#0085FF"/>
<path d="M132.49 161.948L141.073 170.51C141.114 170.551 141.148 170.6 141.17 170.653C141.193 170.707 141.204 170.765 141.204 170.823C141.204 170.881 141.193 170.939 141.17 170.992C141.148 171.046 141.114 171.095 141.073 171.135L137.521 174.708C137.48 174.75 137.431 174.783 137.378 174.805C137.324 174.828 137.267 174.84 137.208 174.84C137.15 174.84 137.092 174.828 137.039 174.805C136.985 174.783 136.937 174.75 136.896 174.708L124.167 161.948C124.125 161.907 124.092 161.859 124.07 161.805C124.047 161.751 124.035 161.694 124.035 161.635C124.035 161.577 124.047 161.52 124.07 161.466C124.092 161.412 124.125 161.364 124.167 161.323L136.865 148.615C136.905 148.573 136.954 148.54 137.008 148.517C137.061 148.495 137.119 148.483 137.177 148.483C137.235 148.483 137.293 148.495 137.347 148.517C137.4 148.54 137.449 148.573 137.49 148.615L141.052 152.177C141.094 152.218 141.127 152.266 141.149 152.32C141.172 152.374 141.183 152.431 141.183 152.49C141.183 152.548 141.172 152.605 141.149 152.659C141.127 152.713 141.094 152.761 141.052 152.802L132.49 161.323C132.448 161.364 132.415 161.412 132.392 161.466C132.37 161.52 132.358 161.577 132.358 161.635C132.358 161.694 132.37 161.751 132.392 161.805C132.415 161.859 132.448 161.907 132.49 161.948Z" fill="#F97316" stroke="#0085FF"/>
<path d="M173.552 161.323L164.969 152.781C164.927 152.741 164.894 152.692 164.872 152.638C164.849 152.585 164.837 152.527 164.837 152.469C164.837 152.411 164.849 152.353 164.872 152.299C164.894 152.246 164.927 152.197 164.969 152.156L168.521 148.615C168.562 148.573 168.61 148.54 168.664 148.517C168.718 148.495 168.775 148.483 168.833 148.483C168.892 148.483 168.949 148.495 169.003 148.517C169.056 148.54 169.105 148.573 169.146 148.615L181.885 161.323C181.927 161.364 181.96 161.412 181.983 161.466C182.005 161.52 182.017 161.577 182.017 161.635C182.017 161.694 182.005 161.751 181.983 161.805C181.96 161.859 181.927 161.907 181.885 161.948L169.125 174.708C169.084 174.75 169.036 174.783 168.982 174.805C168.928 174.828 168.871 174.84 168.813 174.84C168.754 174.84 168.697 174.828 168.643 174.805C168.589 174.783 168.541 174.75 168.5 174.708L164.958 171.135C164.917 171.095 164.884 171.046 164.861 170.992C164.839 170.939 164.827 170.881 164.827 170.823C164.827 170.765 164.839 170.707 164.861 170.653C164.884 170.6 164.917 170.551 164.958 170.51L173.552 161.948C173.594 161.907 173.627 161.859 173.649 161.805C173.672 161.751 173.683 161.694 173.683 161.635C173.683 161.577 173.672 161.52 173.649 161.466C173.627 161.412 173.594 161.364 173.552 161.323Z" fill="#F97316" stroke="#0085FF"/>
</svg>
